<svg width="55" height="50" viewBox="0 0 55 50" fill="none" xmlns="http://www.w3.org/2000/svg">
<g clip-path="url(#clip0_8_1042)">
<path d="M1.51517 29.4488C1.37181 28.8235 1.23119 28.1982 1.08511 27.5729C1.06053 27.4664 1.01548 27.364 0.97998 27.2602C0.97998 26.1475 0.97998 25.0335 0.97998 23.9208C1.13835 23.1521 1.27761 22.3794 1.46056 21.6162C2.42717 17.5723 4.39315 14.0376 7.04314 10.8729C10.2747 7.01466 14.1548 4.01516 18.8582 2.14611C21.5355 1.08257 24.3124 0.520076 27.1986 0.76719C31.6931 1.15083 35.4257 3.70798 36.6504 8.64069C36.679 8.75811 36.679 8.88098 36.6927 9.00249C36.5684 8.7977 36.4278 8.6011 36.3213 8.38675C35.0571 5.86783 33.0747 4.18582 30.3933 3.34891C28.6963 2.81919 26.9529 2.5516 25.1766 2.8424C23.7827 3.0704 22.3737 3.267 21.018 3.64518C18.1824 4.43567 15.6348 5.84735 13.2565 7.56213C11.0243 9.17042 9.03507 11.0504 7.30937 13.1884C5.75023 15.1203 4.41773 17.205 3.40333 19.485C2.0954 22.4231 1.35816 25.4731 1.50288 28.7088C1.5138 28.9559 1.51244 29.203 1.5179 29.4515L1.51517 29.4488Z" fill="#FB6F10"/>
<path d="M54.2101 30.7054C54.7179 33.3444 54.3029 35.8237 52.827 38.0778C51.1423 40.6513 48.6411 42.078 45.7618 42.9177C42.6353 43.8297 39.446 43.8966 36.254 43.4146C30.5841 42.5586 25.5148 40.3114 21.0804 36.6607C20.9862 36.5842 20.9002 36.4982 20.8101 36.4176C22.1563 35.634 23.497 34.8408 24.8554 34.0789C24.9947 34.0011 25.3046 34.0421 25.4288 34.1499C27.0098 35.5234 28.7655 36.6088 30.6715 37.4744C33.6286 38.8164 36.7046 39.5837 39.9689 39.4717C41.6441 39.4144 43.2565 39.0772 44.7651 38.3044C47.5298 36.8873 48.4978 33.9984 47.5598 31.3375C47.4329 29.736 46.8335 28.3025 45.9147 27.0123C43.2456 23.266 39.5307 21.0242 35.2178 19.6631C33.2859 18.9695 31.2967 18.6377 29.242 18.721C27.3375 18.6924 25.5053 19.0146 23.8192 19.9375C21.9679 20.9505 20.8606 22.4741 20.7637 24.6354C20.7173 25.6593 20.9767 26.6273 21.3453 27.5721C21.3139 27.6308 21.2975 27.7195 21.2484 27.7455C20.3514 28.226 19.4803 28.7694 18.5438 29.1558C17.5963 29.5462 16.5846 29.7797 15.6016 30.0828C15.1743 28.9838 14.7456 27.8847 14.3183 26.7857C14.3237 25.9938 14.291 25.2006 14.3442 24.4115C14.5026 22.0932 15.5293 20.1546 17.1116 18.5149C18.2161 17.368 19.5718 16.5612 21.0354 15.9263C22.9495 15.0976 24.9578 14.6498 27.0221 14.5529C29.1669 14.4518 31.309 14.531 33.4416 14.931C36.3796 15.4812 39.1743 16.4301 41.8366 17.7571C44.903 19.2862 47.639 21.2823 49.9764 23.808C51.1846 25.1146 52.2386 26.5276 53.0523 28.1059C53.4865 28.9496 53.8291 29.8398 54.2128 30.7081L54.2101 30.7054Z" fill="#E86F1E"/>
<path d="M1.51359 29.4522C1.5095 29.2051 1.5095 28.9566 1.49858 28.7095C1.35386 25.4738 2.0911 22.4251 3.39903 19.4857C4.41342 17.2057 5.74593 15.121 7.30506 13.1891C9.03076 11.0511 11.02 9.17111 13.2522 7.56283C15.6305 5.84805 18.1781 4.43636 21.0137 3.64587C22.3694 3.26769 23.7784 3.07109 25.1723 2.84309C26.9499 2.55366 28.692 2.81988 30.389 3.34961C33.0704 4.18652 35.0541 5.86853 36.317 8.38745C36.4235 8.60043 36.5641 8.7984 36.6884 9.00319C37.0515 10.7057 37.098 12.4123 36.7689 14.1257C35.648 13.8594 34.5312 13.5673 33.4035 13.3338C32.482 13.1427 31.5454 13.0225 30.6157 12.8696C30.6047 12.7481 30.5938 12.628 30.5843 12.5065C30.3959 9.78958 28.7029 7.7799 26.1116 7.25155C24.4392 6.91023 22.7749 7.0645 21.1789 7.6229C14.982 9.78958 10.6759 13.9864 8.18566 20.0223C7.20949 22.3883 6.89958 24.8512 7.97951 27.3128C8.04094 27.6855 8.07508 28.0637 8.16928 28.4282C8.77546 30.7847 10.8793 32.1841 13.1744 32.3711C15.5062 32.5609 17.6784 31.9301 19.7413 30.9157C22.1797 29.717 24.289 28.0623 26.1239 26.0636C27.3458 24.7324 28.4408 23.3057 29.2736 21.6947C29.7869 20.7022 29.7774 20.6981 30.8792 20.7882C31.0348 20.8005 31.1959 20.7704 31.3474 20.7964C32.3659 20.9684 33.3831 21.1486 34.4002 21.3275C34.3428 21.4531 34.2923 21.5828 34.2268 21.7029C32.0178 25.7605 29.006 29.1136 25.3034 31.8591C25.1409 31.9793 25.0017 32.1336 24.8515 32.2715C24.7709 32.2988 24.6849 32.3151 24.6112 32.3561C22.8896 33.3022 21.1694 34.2511 19.4491 35.1986C17.9023 35.6341 16.3759 36.1857 14.8031 36.4779C11.7258 37.0499 8.71129 36.8137 5.93843 35.1959C3.69529 33.8879 2.25494 31.9329 1.51359 29.4522Z" fill="#E86F1E"/>
<path d="M30.6173 12.8688C31.5471 13.0203 32.4837 13.1418 33.4052 13.333C34.5329 13.5664 35.6497 13.8586 36.7706 14.1248C38.3448 14.7788 39.9599 15.3495 41.4849 16.1045C45.593 18.136 49.0976 20.9157 51.708 24.733C52.8494 26.4013 53.704 28.2062 54.1382 30.1927C54.1751 30.3606 54.186 30.534 54.2106 30.7033C53.8269 29.8336 53.4842 28.9434 53.0501 28.1011C52.2364 26.5215 51.1824 25.1084 49.9741 23.8032C47.6368 21.2761 44.9008 19.2814 41.8344 17.7523C39.1735 16.4253 36.3774 15.4764 33.4394 14.9262C31.3068 14.5262 29.1647 14.4484 27.0199 14.5481C24.9556 14.645 22.9473 15.0928 21.0332 15.9215C19.5696 16.555 18.2139 17.3632 17.1094 18.5101C15.527 20.1511 14.5004 22.0898 14.342 24.4067C14.2887 25.1944 14.3229 25.989 14.316 26.7809C14.2136 26.2935 14.0785 25.8102 14.0143 25.3187C13.5324 21.6092 14.6806 18.5046 17.579 16.1222C20.2672 13.9132 23.4729 13.0722 26.871 12.8729C28.1162 12.7991 29.3681 12.8674 30.6173 12.8701V12.8688Z" fill="#FB6F10"/>
<path d="M19.4517 35.1964C21.1719 34.2489 22.8921 33.3 24.6137 32.3539C24.6875 32.313 24.7735 32.2966 24.854 32.2693C26.2166 33.2195 27.5054 34.3049 28.9553 35.0926C32.86 37.2115 37.0131 38.2983 41.4994 37.5965C42.653 37.4163 43.7507 37.0491 44.7515 36.4402C46.6601 35.2797 47.6117 33.5813 47.5598 31.3368C48.4991 33.9977 47.5311 36.8866 44.7651 38.3038C43.2565 39.0765 41.6441 39.4137 39.9689 39.4711C36.7046 39.583 33.6286 38.8144 30.6714 37.4737C28.7669 36.6095 27.0098 35.5227 25.4288 34.1492C25.3046 34.0414 24.9947 33.9991 24.8554 34.0783C23.497 34.8401 22.1563 35.6333 20.8101 36.417C20.3568 36.0101 19.9049 35.6046 19.4517 35.1978V35.1964Z" fill="#FB6F10"/>
<path d="M49.507 1.48055C49.5739 1.86556 49.6941 2.25056 49.6913 2.63557C49.6886 3.00283 49.5576 3.36872 49.4729 3.78513C49.7282 3.72096 49.9398 3.66362 50.1528 3.61447C51.3488 3.33868 52.3878 3.79059 52.9311 4.82137C53.4499 5.80572 53.2315 7.0372 52.4014 7.82905C51.4089 8.77518 50.1596 8.95676 48.8763 8.96496C47.7308 8.97178 46.5854 8.89942 45.4399 8.86119C45.4399 8.18402 45.4249 7.50548 45.4399 6.82831C45.4631 5.85078 45.4385 4.86369 45.5628 3.89708C45.7389 2.53318 46.7342 1.45325 47.9848 1.23071C48.4558 1.14743 48.9664 1.28259 49.4579 1.31809L49.4674 1.33993C49.4797 1.38771 49.4934 1.4355 49.5057 1.48192L49.507 1.48055Z" fill="#E86F1E"/>
<path d="M16.7386 49.7893C15.2641 49.7962 13.7896 49.8426 12.3178 49.7934C11.5069 49.7661 10.7751 49.4098 10.1512 48.8691C9.22688 48.0691 8.96475 46.8513 9.49447 45.8041C10.0378 44.7296 11.0386 44.2887 12.2974 44.5713C12.4994 44.6163 12.7001 44.6627 12.9363 44.7174C12.8681 44.2395 12.8052 43.789 12.7411 43.3384C12.8093 43.3248 12.8831 43.3234 12.9431 43.2947C13.9848 42.8073 15.4211 43.3808 16.0341 44.3364C16.6444 45.288 16.7782 46.3379 16.8273 47.4042C16.8642 48.1961 16.7727 48.9934 16.7386 49.788V49.7893Z" fill="#E86F1E"/>
<path d="M16.7379 49.7876C16.7721 48.993 16.8635 48.1957 16.8267 47.4038C16.7762 46.3362 16.6424 45.2863 16.0335 44.3361C15.4204 43.3804 13.9842 42.8069 12.9425 43.2943C12.8811 43.323 12.8073 43.3244 12.7404 43.338C12.6817 42.3004 13.2592 41.6492 14.1043 41.2069C15.0027 40.7372 16.0949 40.9161 16.8567 41.6014C17.5585 42.2308 18.0172 43.0445 18.0541 43.9524C18.1332 45.8829 18.0786 47.8175 18.0786 49.7889H16.7393L16.7379 49.7876Z" fill="#FB6F10"/>
<path d="M49.4577 1.31537C48.9649 1.27987 48.4556 1.14471 47.9846 1.22799C46.7327 1.45053 45.7374 2.53046 45.5626 3.89436C45.4384 4.86097 45.463 5.84806 45.4397 6.82559C45.4234 7.50277 45.4384 8.1813 45.4397 8.85848C45.1134 8.85848 44.7871 8.85848 44.3175 8.85848C44.3175 7.00171 44.2724 5.15177 44.3366 3.30593C44.3666 2.42124 44.7107 1.59115 45.3333 0.911249C46.5797 -0.448559 48.4857 -0.264248 49.4591 1.31537H49.4577Z" fill="#FB6F10"/>
<path d="M49.5071 1.47982C49.4948 1.43203 49.4812 1.38425 49.4689 1.33783C49.4812 1.38561 49.4948 1.4334 49.5071 1.47982Z" fill="#940202"/>
<path d="M7.98108 27.3117C8.89035 28.9473 10.2624 29.9412 12.111 30.2416C13.2797 30.4314 14.4511 30.4382 15.5993 30.0791C16.5823 29.776 17.5953 29.5426 18.5414 29.1521C19.478 28.7657 20.3504 28.2224 21.246 27.7418C21.2952 27.7158 21.3116 27.6271 21.343 27.5684C21.4658 27.5152 21.6024 27.4824 21.7102 27.4073C24.9514 25.145 27.5181 22.2971 29.2397 18.7174C31.2944 18.6341 33.2836 18.9658 35.2155 19.6594C34.9438 20.2137 34.6721 20.7694 34.4018 21.3237C33.3846 21.1462 32.3675 20.9646 31.349 20.7926C31.1961 20.7666 31.0364 20.798 30.8807 20.7844C29.779 20.6943 29.7899 20.6984 29.2752 21.6909C28.441 23.3019 27.346 24.7286 26.1255 26.0598C24.2906 28.0585 22.1826 29.7132 19.7429 30.9119C17.6786 31.9263 15.5078 32.5571 13.1759 32.3673C10.8809 32.1803 8.77703 30.7809 8.17085 28.4244C8.07665 28.0599 8.04388 27.6817 7.98108 27.309V27.3117Z" fill="#FB6F10"/>
</g>
<defs>
<clipPath id="clip0_8_1042">
<rect width="53.4393" height="49.8146" fill="white" transform="translate(0.977905)"/>
</clipPath>
</defs>
</svg>
