<svg width="40" height="40" viewBox="0 0 41 42" fill="none" xmlns="http://www.w3.org/2000/svg">
<path fill-rule="evenodd" clip-rule="evenodd" d="M21.593 35.073V39.7035H10.8503V36.4116C10.8503 36.0633 10.5676 35.7806 10.2192 35.7806C9.87087 35.7806 9.58817 36.0633 9.58817 36.4116V40.3346C9.58817 40.6829 9.87048 40.9656 10.2192 40.9656H22.2241C22.5728 40.9656 22.8551 40.6829 22.8551 40.3346V35.073C22.8551 34.7246 22.5724 34.4419 22.2241 34.4419C21.8762 34.4419 21.593 34.7246 21.593 35.073ZM10.8503 25.2452V22.4712C10.8503 22.1228 10.5676 21.8402 10.2192 21.8402C9.87087 21.8402 9.58817 22.1228 9.58817 22.4712V25.2452C9.58817 25.5936 9.87087 25.8762 10.2192 25.8762C10.5676 25.8762 10.8503 25.5936 10.8503 25.2452ZM10.2192 16.6745H20.5796C21.0124 16.6744 21.4407 16.7631 21.8378 16.9351C22.235 17.1071 22.5927 17.3588 22.8888 17.6745C23.4735 18.2984 25.7171 20.6913 26.8967 21.9492C27.1352 22.2032 27.5349 22.2163 27.7886 21.9782C28.0426 21.7396 28.0557 21.34 27.8176 21.0859C26.4815 19.6611 25.1455 18.2362 23.8097 16.8112C23.3955 16.3696 22.8952 16.0176 22.3396 15.777C21.784 15.5365 21.185 15.4124 20.5796 15.4124H10.2193C9.87093 15.4124 9.58824 15.6951 9.58824 16.0435C9.58817 16.3914 9.87087 16.6745 10.2192 16.6745ZM16.3205 1C12.8973 1 10.1183 3.77906 10.1183 7.20183C10.1183 10.625 12.8973 13.404 16.3205 13.404C19.7433 13.404 22.5223 10.625 22.5223 7.20183C22.5223 3.77906 19.7433 1 16.3205 1ZM16.3205 2.26208C19.047 2.26208 21.2602 4.47575 21.2602 7.20183C21.2602 9.92829 19.047 12.142 16.3205 12.142C13.594 12.142 11.3804 9.92829 11.3804 7.20183C11.3804 4.47575 13.594 2.26208 16.3205 2.26208ZM5.97951 6.90311L7.52977 8.45337C7.77628 8.69949 8.17593 8.69949 8.4225 8.45337C8.66863 8.20686 8.66863 7.80721 8.4225 7.56109L6.51298 5.65156C6.36591 5.5044 6.17849 5.40416 5.97443 5.36354C5.77038 5.32292 5.55886 5.34374 5.36665 5.42337C5.17443 5.503 5.01015 5.63785 4.8946 5.81087C4.77905 5.98389 4.71741 6.1873 4.7175 6.39536V12.744C4.7175 13.0923 5.00019 13.375 5.34854 13.375C5.69688 13.375 5.97957 13.0923 5.97957 12.744L5.97951 6.90311ZM32.072 5.80386L33.6226 7.35413C33.8687 7.60025 34.2688 7.60025 34.5149 7.35413C34.761 7.108 34.761 6.70797 34.5149 6.46185L32.6054 4.55232C32.4583 4.40524 32.271 4.30507 32.067 4.26448C31.863 4.22389 31.6516 4.2447 31.4594 4.32429C31.2672 4.40389 31.1029 4.5387 30.9872 4.71168C30.8716 4.88467 30.8099 5.08805 30.8099 5.29611V11.6447C30.8099 11.9931 31.093 12.2758 31.4409 12.2758C31.7893 12.2758 32.072 11.9931 32.072 11.6447V5.80386ZM35.1081 31.3044L36.6584 32.8547C36.9045 33.1008 37.3045 33.1008 37.5507 32.8547C37.7968 32.6082 37.7968 32.2085 37.5507 31.9624C37.5507 31.9624 36.4194 30.8307 35.6411 30.0529C35.4941 29.9058 35.3067 29.8056 35.1027 29.765C34.8987 29.7245 34.6872 29.7453 34.495 29.8249C34.3029 29.9045 34.1386 30.0394 34.0231 30.2123C33.9076 30.3853 33.846 30.5887 33.8461 30.7967V37.1453C33.8461 37.4937 34.1287 37.7763 34.4771 37.7763C34.825 37.7763 35.1081 37.4937 35.1081 37.1453V31.3044Z" fill="#B1B1B1" stroke="#B1B1B1" stroke-width="0.5"/>
<path fill-rule="evenodd" clip-rule="evenodd" d="M5.98065 11.022C5.98069 10.9392 5.96439 10.8571 5.93269 10.7805C5.90099 10.7039 5.85451 10.6343 5.7959 10.5757C5.7373 10.5171 5.66772 10.4707 5.59114 10.439C5.51457 10.4073 5.43249 10.391 5.34961 10.391H3.62269C3.00009 10.391 2.40298 10.6382 1.96265 11.0784C1.52226 11.5187 1.27484 12.116 1.27481 12.7388V13.6244C1.27481 14.4376 1.93402 15.0968 2.74721 15.0968H3.63277C3.9411 15.0968 4.2464 15.0361 4.53124 14.918C4.81608 14.8 5.07487 14.627 5.29282 14.4089C5.51091 14.1909 5.68391 13.932 5.80193 13.6471C5.91995 13.3622 5.98068 13.0569 5.98065 12.7485V11.022ZM4.71858 11.6531V12.7486C4.71858 13.0368 4.60414 13.3131 4.40054 13.5167C4.19693 13.7203 3.92051 13.8348 3.63277 13.8348H2.74721C2.69144 13.8347 2.63795 13.8126 2.59851 13.7731C2.55907 13.7337 2.5369 13.6802 2.53689 13.6244V12.7389C2.53689 12.4511 2.65132 12.1747 2.85493 11.9711C3.05853 11.7675 3.33496 11.6531 3.62269 11.6531H4.71858ZM32.0731 9.92279C32.0731 9.83991 32.0568 9.75783 32.0251 9.68126C31.9934 9.60468 31.947 9.5351 31.8884 9.4765C31.8297 9.4179 31.7602 9.37141 31.6836 9.33971C31.607 9.30801 31.5249 9.29171 31.4421 9.29175H29.7155C29.0928 9.29172 28.4956 9.53897 28.0551 9.97913C27.6147 10.4195 27.3673 11.0168 27.3673 11.6396V12.5251C27.3673 13.3383 28.0265 13.9975 28.8397 13.9975H29.7252C30.0336 13.9975 30.339 13.9368 30.6239 13.8188C30.9088 13.7007 31.1676 13.5278 31.3857 13.3097C31.8258 12.8692 32.0731 12.272 32.073 11.6493L32.0731 9.92279ZM30.811 10.5538V11.6493C30.811 11.9375 30.6966 12.2139 30.493 12.4175C30.2894 12.6211 30.0134 12.7355 29.7252 12.7355H28.8397C28.7839 12.7355 28.7304 12.7133 28.691 12.6739C28.6515 12.6345 28.6294 12.581 28.6293 12.5252V11.6396C28.6293 11.3519 28.7438 11.0755 28.9474 10.8719C29.151 10.6683 29.4274 10.5538 29.7155 10.5538H30.811ZM35.1093 35.4233C35.1093 35.0746 34.8266 34.7923 34.4782 34.7923H32.7513C32.1286 34.7923 31.5314 35.0395 31.0909 35.4796C30.6505 35.92 30.4031 36.5173 30.403 37.1401V38.0257C30.403 38.8389 31.0623 39.4981 31.8754 39.4981H32.761C33.3838 39.4981 33.9811 39.2507 34.4215 38.8103C34.8619 38.3699 35.1093 37.7726 35.1093 37.1498L35.1093 35.4233ZM33.8472 36.0543V37.1498C33.8472 37.2925 33.8191 37.4338 33.7645 37.5656C33.7098 37.6974 33.6297 37.8172 33.5287 37.918C33.4279 38.0188 33.3082 38.0988 33.1765 38.1534C33.0447 38.2079 32.9035 38.236 32.7609 38.236H31.8754C31.8196 38.236 31.7661 38.2138 31.7267 38.1744C31.6872 38.135 31.6651 38.0815 31.6651 38.0257V37.1401C31.6651 36.8524 31.7795 36.576 31.9831 36.3724C32.1869 36.1688 32.4632 36.0544 32.7512 36.0543H33.8472ZM25.0607 26.5127C25.6252 28.4239 25.1133 30.3931 23.4591 31.3834C23.082 31.6094 22.6694 31.7699 22.2387 31.8584C22.2379 31.8584 22.237 31.8584 22.2362 31.8588C21.6216 31.988 21.0478 32.2655 20.5649 32.6671C20.082 33.0686 19.7046 33.5822 19.4655 34.163C18.9682 35.3556 18.1917 36.4847 17.339 36.9955C14.389 38.7615 11.1153 37.2693 9.27011 34.1878C8.74298 33.3069 8.38455 32.3872 8.20996 31.4786C8.14431 31.1365 7.81322 30.9123 7.47121 30.9779C7.1292 31.0436 6.90498 31.3747 6.97057 31.7167C7.17165 32.7625 7.58015 33.8222 8.18722 34.8361C10.4165 38.5592 14.4231 40.212 17.9872 38.0783C19.0296 37.454 20.0224 36.1069 20.6312 34.6459L20.6325 34.6434C20.7932 34.2528 21.047 33.9074 21.3718 33.6374C21.6965 33.3673 22.0824 33.1808 22.4957 33.094C23.0644 32.9768 23.6093 32.7646 24.1074 32.4663C26.2596 31.1777 27.0059 28.6422 26.271 26.1551C26.1721 25.8211 25.8209 25.63 25.4868 25.7285C25.1527 25.8274 24.9618 26.1786 25.0607 26.5127ZM8.95324 27.2809C9.35754 26.6877 9.90697 26.1677 10.6057 25.7491C11.4576 25.2393 12.8181 25.0878 14.1046 25.2208H14.1059C14.7321 25.2844 15.3643 25.1939 15.9476 24.9574C16.5308 24.7209 17.0475 24.3454 17.4525 23.8636C17.455 23.8603 17.4575 23.8569 17.4605 23.854C17.7293 23.5203 18.06 23.2343 18.4428 23.005C20.0439 22.0463 21.9497 22.4645 23.3552 23.7623C23.611 23.9987 24.0107 23.9827 24.2471 23.7269C24.4831 23.4712 24.4676 23.0715 24.2117 22.835C22.3784 21.1426 19.8824 20.6718 17.7946 21.9221C17.2818 22.2293 16.8396 22.6133 16.479 23.0601C15.9301 23.7113 15.0878 24.0521 14.2334 23.9654C12.6588 23.8026 11.0008 24.042 9.9575 24.6663C9.09048 25.1854 8.41189 25.8346 7.9104 26.5708C7.71436 26.8585 7.7888 27.2515 8.0766 27.4475C8.36427 27.6435 8.75719 27.569 8.95324 27.2809Z" fill="#B1B1B1" stroke="#B1B1B1" stroke-width="0.5"/>
<path fill-rule="evenodd" clip-rule="evenodd" d="M22.7893 27.4135L21.6252 25.469L34.0844 18.454C34.3881 18.2832 34.4958 17.8979 34.3246 17.5946C34.1538 17.2908 33.7689 17.1832 33.4652 17.3543C33.4652 17.3543 23.4675 22.9831 20.9913 24.3777C20.8463 24.4593 20.7192 24.5691 20.6174 24.7007C20.5156 24.8322 20.4411 24.9828 20.3985 25.1436C20.3558 25.3043 20.3458 25.472 20.369 25.6367C20.3922 25.8014 20.4482 25.9598 20.5336 26.1025L21.7153 28.0764C21.8009 28.219 21.9141 28.3431 22.0484 28.4414C22.1826 28.5396 22.3351 28.61 22.4969 28.6485C22.6588 28.6868 22.8267 28.6923 22.9907 28.6647C23.1548 28.637 23.3116 28.5767 23.4519 28.4874L28.9999 24.9616C29.2936 24.7747 29.3807 24.3843 29.1939 24.0907C29.0071 23.7967 28.6166 23.7096 28.323 23.8964L22.7893 27.4135ZM34.8568 19.7438L32.2477 21.4022C31.9541 21.589 31.8669 21.9794 32.0538 22.273C32.2406 22.5671 32.631 22.6542 32.925 22.4674L35.5337 20.809C35.8278 20.6222 35.9149 20.2318 35.7281 19.9382C35.5413 19.6441 35.1509 19.5571 34.8568 19.7438Z" fill="#B1B1B1" stroke="#B1B1B1" stroke-width="0.5"/>
<path fill-rule="evenodd" clip-rule="evenodd" d="M36.57 20.8869L38.9449 19.8444C39.2602 19.706 39.5281 19.4784 39.7156 19.1895C39.9031 18.9007 40.0019 18.5632 40 18.2189V18.218C39.9961 17.5045 39.8043 16.8046 39.444 16.1886C39.0837 15.5727 38.5675 15.0626 37.9474 14.7095C37.9378 14.7036 37.9277 14.6981 37.918 14.6927C37.6013 14.5121 37.238 14.4301 36.8744 14.4569C36.5109 14.4837 36.1635 14.6182 35.8768 14.8433L33.8865 16.4045C33.2083 16.9367 33.0316 17.8899 33.4746 18.6295C33.7628 19.1112 34.1263 19.7178 34.4144 20.1996C34.8569 20.939 35.7808 21.2335 36.57 20.8869ZM36.0627 19.7317C35.9626 19.7756 35.85 19.7815 35.7459 19.7482C35.6418 19.715 35.5534 19.6449 35.4973 19.5512C35.1839 19.0279 34.8706 18.5046 34.5574 17.9812C34.5011 17.8875 34.481 17.7765 34.5009 17.669C34.5207 17.5616 34.5791 17.4651 34.6652 17.3977L36.6555 15.836C36.7451 15.7658 36.8536 15.7239 36.9672 15.7155C37.0807 15.7071 37.1942 15.7327 37.2932 15.7889L37.3231 15.8062C37.7505 16.0496 38.1064 16.4013 38.3548 16.8258C38.6032 17.2504 38.7355 17.7329 38.7383 18.2248V18.2261C38.7387 18.3241 38.7105 18.4202 38.657 18.5024C38.6036 18.5846 38.5273 18.6494 38.4375 18.6888L36.0627 19.7317ZM20.2821 27.5944C19.5207 26.3226 17.8703 25.9082 16.599 26.6697C15.3272 27.4312 14.9128 29.0816 15.6743 30.3529C16.4357 31.6247 18.0862 32.0386 19.3575 31.2775C20.6292 30.5161 21.0432 28.8657 20.2821 27.5944ZM19.1993 28.2426C19.6028 28.9166 19.3831 29.7912 18.7092 30.1946C18.0352 30.598 17.1606 30.3784 16.7572 29.7045C16.3537 29.0305 16.5734 28.1559 17.2473 27.7525C17.9213 27.3491 18.7958 27.5687 19.1993 28.2426ZM11.9971 15.4124H9.83052C9.41459 15.4124 9.00413 15.5073 8.63032 15.6896C8.25652 15.872 7.92918 16.1372 7.67319 16.465L1.57908 24.2743C1.35745 24.5585 1.1941 24.8836 1.09837 25.2311C1.00265 25.5786 0.976442 25.9415 1.02125 26.2991C1.06632 26.6567 1.18153 27.0018 1.36027 27.3148C1.53901 27.6277 1.77777 27.9023 2.06286 28.1228L8.658 33.2211C9.85275 34.1449 11.5726 33.9245 12.4964 32.7298C13.4202 31.535 13.1998 29.8148 12.005 28.8914L7.5996 25.4855L8.46661 24.3442C8.67739 24.0669 8.62311 23.6707 8.34584 23.4599C8.06858 23.2492 7.67229 23.3034 7.46158 23.5807L6.21591 25.2205C6.00643 25.496 6.05857 25.8894 6.33242 26.1014L11.233 29.8897C11.8771 30.3874 11.9953 31.3142 11.4981 31.9578C11.0004 32.6019 10.0736 32.7201 9.42997 32.2224L2.83483 27.124C2.52435 26.8843 2.32242 26.5309 2.27364 26.1418C2.22485 25.7526 2.33295 25.3597 2.57404 25.0509L8.66815 17.2416C8.80609 17.065 8.98246 16.9222 9.18387 16.8239C9.38528 16.7257 9.60643 16.6746 9.83052 16.6746H11.9971C12.3454 16.6746 12.6281 16.3914 12.6281 16.0435C12.6281 15.6951 12.3454 15.4124 11.9971 15.4124ZM29.1911 22.5515C28.3729 23.3617 27.9093 24.3369 27.8357 25.1623C27.7759 25.8346 27.9631 26.4227 28.372 26.8354C28.7809 27.2481 29.3674 27.4412 30.0401 27.3877C30.8663 27.3221 31.8457 26.8678 32.6635 26.0571C33.4817 25.2469 33.9453 24.2721 34.0189 23.4468C34.0786 22.774 33.8914 22.1864 33.4826 21.7733C33.0737 21.3606 32.4872 21.1675 31.8145 21.2209C30.9883 21.287 30.0093 21.7413 29.1911 22.5515ZM30.0792 23.448C30.6564 22.8763 31.3316 22.5255 31.9147 22.4792C32.1809 22.4581 32.4241 22.4981 32.5856 22.6618C32.7476 22.825 32.7855 23.0686 32.7619 23.3349C32.7098 23.9172 32.3526 24.589 31.7754 25.1607C31.1982 25.7324 30.523 26.0833 29.9399 26.1295C29.6737 26.151 29.4305 26.1106 29.269 25.9474C29.107 25.7837 29.0691 25.5406 29.0927 25.2743C29.1448 24.692 29.502 24.0198 30.0792 23.448Z" fill="#B1B1B1" stroke="#B1B1B1" stroke-width="0.5"/>
</svg>
