<svg width="40" height="40" viewBox="0 0 41 41" fill="none" xmlns="http://www.w3.org/2000/svg">
<path d="M39.9368 29.7432C39.8802 29.5674 39.7752 29.4111 39.6339 29.2922C39.4925 29.1733 39.3205 29.0967 39.1376 29.0711L37.5506 28.8365L36.8415 27.3987C36.7866 27.2938 36.7133 27.1995 36.625 27.1204V24.4452C37.7056 23.829 38.7417 23.1379 39.7258 22.3769C39.8643 22.2669 39.9539 22.1066 39.975 21.931C39.9961 21.7553 39.9472 21.5784 39.8387 21.4386C39.7302 21.2988 39.571 21.2074 39.3956 21.1842C39.2202 21.1611 39.0427 21.208 38.9017 21.3149C28.7519 29.1853 12.2347 29.1853 2.08426 21.3149C1.94324 21.208 1.76577 21.1611 1.59035 21.1842C1.41494 21.2074 1.25572 21.2988 1.14725 21.4386C1.03878 21.5784 0.989806 21.7553 1.01095 21.931C1.03209 22.1066 1.12164 22.2669 1.26018 22.3769C2.44796 23.2917 3.70996 24.1059 5.03307 24.8109V27.9492C3.85571 28.1192 2.78641 28.7287 2.04037 29.6553C1.29434 30.5818 0.926946 31.7566 1.01213 32.9431C1.09732 34.1296 1.62877 35.2398 2.49951 36.0503C3.37026 36.8608 4.51568 37.3113 5.70524 37.3113C6.89481 37.3113 8.04022 36.8608 8.91097 36.0503C9.78172 35.2398 10.3132 34.1296 10.3983 32.9431C10.4835 31.7566 10.1161 30.5818 9.37011 29.6553C8.62407 28.7287 7.55477 28.1192 6.37741 27.9492V25.4891C9.14962 26.7803 12.0921 27.669 15.1156 28.128V30.4806C15.0274 30.5604 14.9541 30.6553 14.8992 30.7609L14.19 32.1973L12.6051 32.4279C12.422 32.4542 12.2499 32.5312 12.1083 32.6502C11.9667 32.7692 11.8613 32.9255 11.8039 33.1014C11.7465 33.2772 11.7396 33.4656 11.7837 33.6453C11.8279 33.8249 11.9215 33.9885 12.0539 34.1177L13.2019 35.2369L12.9331 36.8165C12.9018 36.9987 12.9221 37.1861 12.9918 37.3574C13.0614 37.5287 13.1776 37.6771 13.3272 37.7858C13.4768 37.8944 13.6538 37.9591 13.8383 37.9724C14.0227 37.9857 14.2072 37.9471 14.3709 37.861L15.7878 37.1176L17.2067 37.8637C17.3705 37.9496 17.5549 37.988 17.7393 37.9745C17.9237 37.9611 18.1007 37.8964 18.2502 37.7877C18.3998 37.6789 18.516 37.5306 18.5856 37.3593C18.6553 37.1881 18.6757 37.0007 18.6445 36.8185L18.3756 35.2389L19.523 34.1204C19.6554 33.9914 19.749 33.828 19.7933 33.6485C19.8376 33.4691 19.8309 33.2809 19.7738 33.1051C19.7167 32.9293 19.6117 32.773 19.4704 32.6538C19.3292 32.5346 19.1574 32.4573 18.9745 32.4306L17.3855 32.1973L16.6764 30.7596C16.6215 30.6546 16.5482 30.5603 16.46 30.4813V28.3108C17.7987 28.4656 19.1453 28.5435 20.493 28.5441C22.0668 28.5425 23.6387 28.4351 25.1982 28.2228V30.6379C24.0208 30.8078 22.9515 31.4174 22.2055 32.344C21.4594 33.2705 21.092 34.4453 21.1772 35.6318C21.2624 36.8183 21.7939 37.9285 22.6646 38.739C23.5354 39.5494 24.6808 40 25.8703 40C27.0599 40 28.2053 39.5494 29.0761 38.739C29.9468 37.9285 30.4782 36.8183 30.5634 35.6318C30.6486 34.4453 30.2812 33.2705 29.5352 32.344C28.7892 31.4174 27.7199 30.8078 26.5425 30.6379V28.0164C29.5782 27.4957 32.5219 26.5354 35.2807 25.1658V27.1225C35.1925 27.2023 35.1192 27.2972 35.0643 27.4027L34.3551 28.8365L32.7702 29.067C32.5871 29.0933 32.415 29.1703 32.2734 29.2894C32.1318 29.4084 32.0264 29.5647 31.969 29.7405C31.9116 29.9164 31.9046 30.1048 31.9488 30.2844C31.993 30.464 32.0866 30.6277 32.219 30.7569L33.367 31.876L33.0982 33.4556C33.0669 33.6379 33.0872 33.8253 33.1568 33.9965C33.2265 34.1678 33.3427 34.3162 33.4923 34.4249C33.6419 34.5336 33.8189 34.5983 34.0034 34.6116C34.1878 34.6249 34.3723 34.5863 34.5359 34.5002L35.9529 33.7568L37.3718 34.5029C37.5356 34.5888 37.72 34.6271 37.9044 34.6137C38.0888 34.6003 38.2658 34.5355 38.4153 34.4268C38.5649 34.3181 38.681 34.1697 38.7507 33.9985C38.8204 33.8272 38.8408 33.6399 38.8096 33.4577L38.5407 31.8781L39.6881 30.7596C39.821 30.6307 39.9149 30.467 39.9589 30.2872C40.0029 30.1074 39.9952 29.9189 39.9368 29.7432ZM9.06609 32.6006C9.06609 33.2653 8.86898 33.9151 8.49968 34.4678C8.13039 35.0205 7.6055 35.4513 6.99138 35.7057C6.37727 35.96 5.70151 36.0266 5.04957 35.8969C4.39763 35.7672 3.79879 35.4471 3.32876 34.9771C2.85874 34.5071 2.53865 33.9082 2.40897 33.2563C2.27929 32.6044 2.34585 31.9286 2.60022 31.3145C2.8546 30.7004 3.28537 30.1755 3.83805 29.8062C4.39074 29.4369 5.04053 29.2398 5.70524 29.2398C6.59627 29.2409 7.45049 29.5953 8.08054 30.2253C8.71059 30.8554 9.06502 31.7096 9.06609 32.6006ZM16.8424 33.4792L18.0698 33.6573L17.1819 34.523C17.1039 34.5991 17.0456 34.693 17.012 34.7967C16.9784 34.9003 16.9705 35.0105 16.989 35.1179L17.198 36.3399L16.1003 35.7632C16.004 35.7122 15.8967 35.6856 15.7878 35.6856C15.6788 35.6856 15.5715 35.7122 15.4752 35.7632L14.3776 36.3399L14.5866 35.1179C14.6051 35.0105 14.5972 34.9003 14.5636 34.7967C14.53 34.693 14.4717 34.5991 14.3937 34.523L13.5058 33.6573L14.7332 33.4792C14.841 33.4635 14.9434 33.4218 15.0316 33.3578C15.1198 33.2937 15.1911 33.2092 15.2393 33.1115L15.7878 31.999L16.3363 33.1115C16.3845 33.2092 16.4558 33.2937 16.544 33.3578C16.6321 33.4218 16.7346 33.4635 16.8424 33.4792ZM29.2312 35.2893C29.2312 35.954 29.0341 36.6038 28.6648 37.1565C28.2955 37.7092 27.7706 38.14 27.1565 38.3943C26.5424 38.6487 25.8666 38.7153 25.2147 38.5856C24.5627 38.4559 23.9639 38.1358 23.4939 37.6658C23.0238 37.1958 22.7037 36.5969 22.5741 35.945C22.4444 35.293 22.5109 34.6173 22.7653 34.0032C23.0197 33.3891 23.4505 32.8642 24.0031 32.4949C24.5558 32.1256 25.2056 31.9285 25.8703 31.9285C26.7614 31.9295 27.6156 32.284 28.2456 32.914C28.8757 33.5441 29.2301 34.3983 29.2312 35.2893ZM37.347 31.1622C37.269 31.2383 37.2107 31.3322 37.1771 31.4358C37.1435 31.5395 37.1356 31.6497 37.154 31.7571L37.3631 32.9791L36.2654 32.4023C36.1691 32.3514 36.0618 32.3247 35.9529 32.3247C35.8439 32.3247 35.7366 32.3514 35.6403 32.4023L34.5427 32.9791L34.7517 31.7571C34.7702 31.6497 34.7622 31.5395 34.7286 31.4358C34.695 31.3322 34.6367 31.2383 34.5588 31.1622L33.6709 30.2964L34.8982 30.1183C35.0061 30.1027 35.1085 30.061 35.1967 29.9969C35.2849 29.9329 35.3561 29.8484 35.4044 29.7506L35.9529 28.6382L36.5014 29.7506C36.5496 29.8484 36.6209 29.9329 36.7091 29.9969C36.7972 30.061 36.8997 30.1027 37.0075 30.1183L38.2349 30.2964L37.347 31.1622Z" fill="#B1B1B1" stroke="#B1B1B1" stroke-width="0.5"/>
<path d="M35.2807 37.3058H34.6085V36.6336C34.6085 36.4554 34.5377 36.2844 34.4117 36.1583C34.2856 36.0323 34.1146 35.9615 33.9364 35.9615C33.7581 35.9615 33.5871 36.0323 33.4611 36.1583C33.335 36.2844 33.2642 36.4554 33.2642 36.6336V37.3058H32.592C32.4138 37.3058 32.2428 37.3766 32.1167 37.5027C31.9907 37.6287 31.9199 37.7997 31.9199 37.978C31.9199 38.1562 31.9907 38.3272 32.1167 38.4533C32.2428 38.5793 32.4138 38.6501 32.592 38.6501H33.2642V39.3223C33.2642 39.5006 33.335 39.6716 33.4611 39.7976C33.5871 39.9237 33.7581 39.9945 33.9364 39.9945C34.1146 39.9945 34.2856 39.9237 34.4117 39.7976C34.5377 39.6716 34.6085 39.5006 34.6085 39.3223V38.6501H35.2807C35.459 38.6501 35.63 38.5793 35.756 38.4533C35.8821 38.3272 35.9529 38.1562 35.9529 37.978C35.9529 37.7997 35.8821 37.6287 35.756 37.5027C35.63 37.3766 35.459 37.3058 35.2807 37.3058ZM1.42756 11.682C4.51883 12.8619 7.77765 13.5441 11.0826 13.7032V16.0686C10.9942 16.148 10.9209 16.2428 10.8662 16.3482L10.157 17.786L8.57004 18.0172C8.38716 18.0438 8.21536 18.121 8.07408 18.2401C7.9328 18.3592 7.82768 18.5155 7.77061 18.6913C7.71354 18.867 7.70679 19.0553 7.75114 19.2347C7.79549 19.4141 7.88916 19.5775 8.02155 19.7064L9.16894 20.8256L8.90007 22.4058C8.86877 22.5881 8.8891 22.7754 8.95875 22.9467C9.02841 23.118 9.14461 23.2664 9.29421 23.3751C9.44381 23.4838 9.62084 23.5484 9.80528 23.5617C9.98971 23.575 10.1742 23.5365 10.3378 23.4504L11.7548 22.7043L13.1737 23.451C13.3162 23.5257 13.4746 23.5649 13.6355 23.5653C13.7797 23.5648 13.9221 23.5329 14.0528 23.4718C14.1834 23.4107 14.2992 23.322 14.3921 23.2116C14.4849 23.1013 14.5527 22.9721 14.5906 22.8329C14.6285 22.6938 14.6356 22.548 14.6115 22.4058L14.3426 20.8256L15.4907 19.7064C15.6228 19.5773 15.7163 19.4139 15.7604 19.2345C15.8046 19.0551 15.7977 18.867 15.7406 18.6913C15.6835 18.5156 15.5784 18.3594 15.4372 18.2403C15.296 18.1212 15.1243 18.0439 14.9415 18.0172L13.3545 17.786L12.6454 16.3482C12.5901 16.2426 12.5161 16.1479 12.4269 16.0686V13.751C12.6353 13.751 12.8423 13.7644 13.0507 13.7644C16.0104 13.7555 18.959 13.4029 21.8373 12.7138V15.178C20.66 15.3479 19.5907 15.9575 18.8446 16.8841C18.0986 17.8106 17.7312 18.9854 17.8164 20.1719C17.9016 21.3584 18.433 22.4686 19.3038 23.2791C20.1745 24.0895 21.3199 24.5401 22.5095 24.5401C23.6991 24.5401 24.8445 24.0895 25.7152 23.2791C26.586 22.4686 27.1174 21.3584 27.2026 20.1719C27.2878 18.9854 26.9204 17.8106 26.1744 16.8841C25.4283 15.9575 24.359 15.3479 23.1817 15.178V12.3683C26.4931 11.4684 29.6611 10.106 32.592 8.32118V10.4721C31.4147 10.6421 30.3454 11.2516 29.5993 12.1782C28.8533 13.1048 28.4859 14.2795 28.5711 15.466C28.6563 16.6525 29.1877 17.7627 30.0585 18.5732C30.9292 19.3837 32.0746 19.8342 33.2642 19.8342C34.4538 19.8342 35.5992 19.3837 36.4699 18.5732C37.3407 17.7627 37.8721 16.6525 37.9573 15.466C38.0425 14.2795 37.6751 13.1048 36.9291 12.1782C36.183 11.2516 35.1137 10.6421 33.9364 10.4721V7.44736C36.1457 5.95553 38.1314 4.15693 39.834 2.10563C39.8915 2.0375 39.9348 1.95862 39.9615 1.87358C39.9883 1.78854 39.9978 1.69903 39.9896 1.61027C39.9814 1.52151 39.9556 1.43527 39.9137 1.35657C39.8719 1.27787 39.8148 1.20828 39.7458 1.15185C39.6768 1.09542 39.5973 1.05328 39.5118 1.02787C39.4264 1.00247 39.3367 0.994316 39.2481 1.00388C39.1595 1.01345 39.0737 1.04055 38.9956 1.0836C38.9175 1.12666 38.8488 1.1848 38.7935 1.25466C30.7422 11.1107 14.1995 15.2257 1.9169 10.4298C1.83468 10.3976 1.74693 10.382 1.65867 10.3838C1.57041 10.3856 1.48336 10.4047 1.4025 10.4402C1.32164 10.4756 1.24855 10.5266 1.1874 10.5903C1.12625 10.6539 1.07824 10.729 1.04611 10.8112C1.01398 10.8935 0.998356 10.9812 1.00014 11.0695C1.00192 11.1577 1.02107 11.2448 1.05649 11.3256C1.09191 11.4065 1.14291 11.4796 1.20658 11.5407C1.27025 11.6019 1.34534 11.6499 1.42756 11.682ZM12.8094 19.0651L14.0368 19.2439L13.1489 20.1097C13.0708 20.1857 13.0124 20.2796 12.9786 20.3832C12.9449 20.4869 12.9369 20.5971 12.9553 20.7046L13.1657 21.9272L12.0673 21.3505C11.9711 21.2993 11.8638 21.2725 11.7548 21.2725C11.6458 21.2725 11.5384 21.2993 11.4422 21.3505L10.3439 21.9272L10.5543 20.7046C10.5727 20.5971 10.5646 20.4869 10.5309 20.3832C10.4972 20.2796 10.4388 20.1857 10.3607 20.1097L9.47276 19.2439L10.7001 19.0651C10.8079 19.0494 10.9102 19.0077 10.9982 18.9436C11.0863 18.8796 11.1574 18.7951 11.2056 18.6975L11.7548 17.5857L12.3039 18.6975C12.3521 18.7951 12.4233 18.8796 12.5113 18.9436C12.5994 19.0077 12.7017 19.0494 12.8094 19.0651ZM25.8703 19.8294C25.8703 20.4941 25.6732 21.1439 25.3039 21.6966C24.9346 22.2493 24.4097 22.68 23.7956 22.9344C23.1815 23.1888 22.5058 23.2553 21.8538 23.1257C21.2019 22.996 20.603 22.6759 20.133 22.2059C19.663 21.7359 19.3429 21.137 19.2132 20.4851C19.0835 19.8331 19.1501 19.1574 19.4045 18.5433C19.6588 17.9291 20.0896 17.4042 20.6423 17.035C21.195 16.6657 21.8448 16.4686 22.5095 16.4686C23.4005 16.4696 24.2547 16.824 24.8848 17.4541C25.5148 18.0841 25.8693 18.9384 25.8703 19.8294ZM36.6251 15.1242C36.6251 15.7889 36.4279 16.4387 36.0586 16.9914C35.6894 17.5441 35.1645 17.9749 34.5503 18.2292C33.9362 18.4836 33.2605 18.5502 32.6085 18.4205C31.9566 18.2908 31.3578 17.9707 30.8877 17.5007C30.4177 17.0307 30.0976 16.4318 29.9679 15.7799C29.8383 15.1279 29.9048 14.4522 30.1592 13.8381C30.4136 13.224 30.8443 12.6991 31.397 12.3298C31.9497 11.9605 32.5995 11.7634 33.2642 11.7634C34.1552 11.7644 35.0095 12.1189 35.6395 12.7489C36.2696 13.379 36.624 14.2332 36.6251 15.1242Z" fill="#B1B1B1" stroke="#B1B1B1" stroke-width="0.5"/>
<path d="M10.41 8.4026H11.7544V9.74694C11.7544 9.92521 11.8252 10.0962 11.9512 10.2222C12.0773 10.3483 12.2483 10.4191 12.4265 10.4191C12.6048 10.4191 12.7758 10.3483 12.9018 10.2222C13.0279 10.0962 13.0987 9.92521 13.0987 9.74694V8.4026H14.443C14.6213 8.4026 14.7923 8.33178 14.9183 8.20572C15.0444 8.07967 15.1152 7.9087 15.1152 7.73043C15.1152 7.55216 15.0444 7.38119 14.9183 7.25513C14.7923 7.12907 14.6213 7.05826 14.443 7.05826H13.0987V5.71392C13.0987 5.53565 13.0279 5.36468 12.9018 5.23862C12.7758 5.11257 12.6048 5.04175 12.4265 5.04175C12.2483 5.04175 12.0773 5.11257 11.9512 5.23862C11.8252 5.36468 11.7544 5.53565 11.7544 5.71392V7.05826H10.41C10.2318 7.05826 10.0608 7.12907 9.93473 7.25513C9.80867 7.38119 9.73785 7.55216 9.73785 7.73043C9.73785 7.9087 9.80867 8.07967 9.93473 8.20572C10.0608 8.33178 10.2318 8.4026 10.41 8.4026Z" fill="#B1B1B1" stroke="#B1B1B1" stroke-width="0.5"/>
<path d="M3.68945 17.8131C4.06075 17.8131 4.36175 17.5121 4.36175 17.1408C4.36175 16.7695 4.06075 16.4685 3.68945 16.4685C3.31815 16.4685 3.01715 16.7695 3.01715 17.1408C3.01715 17.5121 3.31815 17.8131 3.68945 17.8131Z" fill="#B1B1B1" stroke="#B1B1B1" stroke-width="0.5"/>
</svg>
