<svg width="40" height="40" viewBox="0 0 44 38" fill="none" xmlns="http://www.w3.org/2000/svg">
<path d="M34.3948 28.8016L30.7631 27.2452C33.1009 22.8622 34.4178 17.0381 34.4178 13.6086C34.4178 6.65624 28.7616 1 21.8092 1C14.8492 1 9.20051 6.64543 9.20051 13.6087C9.20051 17.0112 10.4772 22.7763 12.855 27.2453L9.22357 28.8016C6.31386 30.0485 4.57515 33.8195 4.57515 36.7447C4.57515 37.2381 4.97522 37.6383 5.46877 37.6383H38.1496C38.643 37.6383 39.0432 37.2381 39.0432 36.7447C39.0432 33.8194 37.3045 30.0485 34.3948 28.8016ZM26.6084 24.2357C26.2901 23.8803 26.294 23.3479 26.6172 23.0238C27.9622 21.6746 28.7028 19.883 28.7028 17.9787V17.0542C29.9163 17.1363 31.1353 17.0522 32.326 16.8041C31.8634 19.6031 30.8327 23.3494 29.1335 26.5033C28.4224 26.0716 27.5607 25.2991 26.6084 24.2357ZM32.6306 13.6087C32.6306 14.0002 32.6098 14.4372 32.5685 14.9137C31.0823 15.3061 29.5066 15.4039 27.9357 15.1793C22.1946 14.3579 17.8732 9.35433 17.9812 3.48443C19.2021 3.02154 20.4872 2.78723 21.8092 2.78723C27.7761 2.78723 32.6306 7.64172 32.6306 13.6087ZM16.2087 4.34954C16.2699 5.61545 16.5116 6.86614 16.9265 8.06368C15.3364 9.41564 14.4049 11.4041 14.4049 13.5106V17.9787C14.4049 20.0659 15.3145 22.0432 16.9003 23.4039C17.3028 23.7493 17.3365 24.3485 16.9734 24.7208C16.2557 25.4573 15.4185 26.0669 14.4973 26.5239C12.0811 22.0541 10.9878 16.3711 10.9878 13.6087C10.9877 9.78988 12.998 6.2928 16.2087 4.34954ZM6.42565 35.8511C6.71742 33.7152 8.00155 31.2697 9.92756 30.4442C15.5168 28.0488 14.2825 28.5794 14.4672 28.4986C14.638 28.4067 16.4764 27.7893 18.2526 25.9689C19.3513 24.8426 19.2326 23.0501 18.064 22.0475C16.8744 21.0268 16.1922 19.5439 16.1922 17.9787V13.5106C16.1922 12.1213 16.7325 10.8 17.6744 9.8116C19.5294 13.4112 22.9422 16.0064 26.9156 16.8156V17.9787C26.9156 19.4066 26.3601 20.7503 25.3515 21.7619C24.3597 22.7568 24.327 24.367 25.277 25.4279C27.6994 28.1332 28.9678 28.3853 29.1514 28.4987L33.6907 30.4442C35.6168 31.2696 36.901 33.7151 37.1926 35.851H6.42565V35.8511Z" fill="#B1B1B1" stroke="#B1B1B1" stroke-width="0.617647"/>
<path d="M23.5564 7.25525C26.2936 7.25525 28.5204 9.48206 28.5204 12.2191C28.5204 12.7127 28.9205 13.1127 29.414 13.1127C29.9074 13.1127 30.3076 12.7127 30.3076 12.2191C30.3076 8.49649 27.279 5.46802 23.5564 5.46802C23.063 5.46802 22.6628 5.86809 22.6628 6.36163C22.6628 6.85518 23.063 7.25525 23.5564 7.25525ZM6.36171 22.4467C6.36171 20.9685 5.15908 19.7659 3.68085 19.7659C2.20263 19.7659 1 20.9685 1 22.4467C1 23.925 2.20263 25.1276 3.68085 25.1276C5.15908 25.1276 6.36171 23.925 6.36171 22.4467ZM2.78724 22.4467C2.78724 21.954 3.18811 21.5531 3.68085 21.5531C4.1736 21.5531 4.57447 21.954 4.57447 22.4467C4.57447 22.9395 4.1736 23.3404 3.68085 23.3404C3.18811 23.3404 2.78724 22.9395 2.78724 22.4467ZM21.8149 19.134C21.732 19.2171 21.6335 19.2829 21.5251 19.3279C21.4166 19.3728 21.3004 19.396 21.1831 19.396C21.0657 19.396 20.9495 19.3728 20.841 19.3279C20.7326 19.2829 20.6341 19.2171 20.5512 19.134C20.2022 18.7851 19.6364 18.7851 19.2873 19.134C18.9384 19.483 18.9384 20.0488 19.2873 20.3979C20.3325 21.4429 22.0333 21.4431 23.0787 20.3979C23.4276 20.0489 23.4276 19.4831 23.0787 19.134C22.7296 18.785 22.1639 18.785 21.8149 19.134ZM39.4255 13.5106C37.4546 13.5106 35.8511 15.1141 35.8511 17.085C35.8511 19.056 37.4546 20.6595 39.4255 20.6595C41.3965 20.6595 43 19.056 43 17.085C43 15.1141 41.3965 13.5106 39.4255 13.5106ZM39.4255 18.8723C38.4401 18.8723 37.6383 18.0705 37.6383 17.085C37.6383 16.0996 38.4401 15.2978 39.4255 15.2978C40.411 15.2978 41.2128 16.0996 41.2128 17.085C41.2128 18.0705 40.411 18.8723 39.4255 18.8723Z" fill="#B1B1B1" stroke="#B1B1B1" stroke-width="0.617647"/>
<path d="M34.0636 2.78723C34.5571 2.78723 34.9572 2.38715 34.9572 1.89362C34.9572 1.40009 34.5571 1 34.0636 1C33.5701 1 33.17 1.40009 33.17 1.89362C33.17 2.38715 33.5701 2.78723 34.0636 2.78723Z" fill="#B1B1B1" stroke="#B1B1B1" stroke-width="0.617647"/>
<path d="M40.3185 10.8297C40.812 10.8297 41.2121 10.4296 41.2121 9.9361C41.2121 9.44257 40.812 9.04248 40.3185 9.04248C39.8249 9.04248 39.4249 9.44257 39.4249 9.9361C39.4249 10.4296 39.8249 10.8297 40.3185 10.8297Z" fill="#B1B1B1" stroke="#B1B1B1" stroke-width="0.617647"/>
<path d="M7.2543 6.3617C7.74783 6.3617 8.14792 5.96161 8.14792 5.46808C8.14792 4.97455 7.74783 4.57446 7.2543 4.57446C6.76077 4.57446 6.36068 4.97455 6.36068 5.46808C6.36068 5.96161 6.76077 6.3617 7.2543 6.3617Z" fill="#B1B1B1" stroke="#B1B1B1" stroke-width="0.617647"/>
<path d="M3.68051 29.5958C4.17404 29.5958 4.57413 29.1957 4.57413 28.7022C4.57413 28.2087 4.17404 27.8086 3.68051 27.8086C3.18698 27.8086 2.7869 28.2087 2.7869 28.7022C2.7869 29.1957 3.18698 29.5958 3.68051 29.5958Z" fill="#B1B1B1" stroke="#B1B1B1" stroke-width="0.617647"/>
</svg>
