<svg width="40" height="40" viewBox="0 0 25 42" fill="none" xmlns="http://www.w3.org/2000/svg">
<path d="M22.0927 5.64527C21.508 5.64527 20.9825 5.84892 20.5555 6.18396V5.3168C20.5555 3.9241 19.4255 2.79418 18.0328 2.79418C17.4482 2.79418 16.9226 2.99783 16.4956 3.33286V2.46571C16.4806 1.80664 16.2082 1.17962 15.7367 0.718812C15.2653 0.258003 14.6322 0 13.973 0C13.3137 0 12.6807 0.258003 12.2092 0.718812C11.7378 1.17962 11.4654 1.80664 11.4504 2.46571V3.86498C11.1679 3.63505 10.8328 3.45768 10.465 3.37885C9.61095 3.18834 8.73722 3.44454 8.1197 4.06206C7.64671 4.53505 7.38394 5.17228 7.38394 5.84892V16.4847C7.38394 17.5161 7.23941 18.5409 6.95693 19.5394C6.95036 19.5591 6.94379 19.5788 6.85182 19.5394L5.94525 16.3927C5.34744 14.3102 3.17299 13.108 1.09051 13.7059C0.446715 13.8898 0 14.4876 0 15.1577C0 15.381 0.0591242 15.6175 0.170803 15.8475C1.19562 17.8642 1.8854 20.1307 2.21387 22.6007C2.41095 24.0788 3.11387 25.419 4.19781 26.3584L7.41022 29.1635C7.84916 29.5494 8.20095 30.0243 8.4422 30.5567C8.68346 31.089 8.80866 31.6666 8.80949 32.2511V41.5007C8.80949 41.7701 9.03284 41.9934 9.30219 41.9934C9.57153 41.9934 9.79489 41.7701 9.79489 41.5007V39.9175C9.84087 39.9307 9.88029 39.9372 9.92627 39.9372C10.0442 39.9372 10.1583 39.8951 10.2479 39.8184C10.3375 39.7417 10.3967 39.6355 10.415 39.519C10.4332 39.4025 10.4092 39.2833 10.3473 39.1829C10.2854 39.0825 10.1897 39.0076 10.0774 38.9715C9.9854 38.9453 9.89343 38.9124 9.80146 38.8796V36.9679C11.6212 37.592 13.6248 37.9533 15.727 37.9533C17.8226 37.9533 19.8197 37.6051 21.6263 36.981V39.011C21.5643 39.0048 21.5016 39.0115 21.4423 39.0307C21.2387 39.0898 21.035 39.1489 20.8248 39.2015C20.7622 39.2182 20.7036 39.2472 20.6522 39.2866C20.6008 39.3261 20.5577 39.3753 20.5254 39.4314C20.493 39.4876 20.4721 39.5495 20.4637 39.6138C20.4554 39.678 20.4597 39.7433 20.4766 39.8058C20.5358 40.0292 20.7328 40.1737 20.9496 40.1737C20.989 40.1737 21.035 40.1672 21.0744 40.1606C21.2584 40.1146 21.4423 40.062 21.6197 40.0095V41.5073C21.6197 41.7766 21.8431 42 22.1124 42C22.3817 42 22.6051 41.7766 22.6051 41.5073V32.1854C22.6051 30.7204 22.9401 29.2489 23.5708 27.935C24.2671 26.4832 24.635 24.8672 24.635 23.2577V8.17447C24.6219 6.78177 23.4854 5.64527 22.0927 5.64527ZM10.3467 34.6686C10.2679 34.8591 10.0839 34.9774 9.88686 34.9774C9.84744 34.9774 9.8146 34.9642 9.77518 34.9577V33.9066C9.87372 33.946 9.96569 33.992 10.0708 34.0314C10.3204 34.1299 10.4453 34.4124 10.3467 34.6686ZM12.7248 35.7854C12.6985 35.7854 12.6657 35.7854 12.6394 35.7788C12.4161 35.7394 12.1927 35.6934 11.9759 35.6409C11.9123 35.627 11.8521 35.6006 11.7988 35.5633C11.7455 35.526 11.7001 35.4784 11.6652 35.4234C11.6304 35.3685 11.6068 35.3071 11.5959 35.2429C11.5849 35.1788 11.5868 35.1131 11.6015 35.0496C11.6606 34.7869 11.9299 34.6226 12.1927 34.6818C12.3963 34.7277 12.6066 34.7672 12.8168 34.8066C13.0796 34.8591 13.2569 35.1153 13.2109 35.3847C13.1895 35.4977 13.1291 35.5997 13.0403 35.6729C12.9515 35.7461 12.8399 35.7859 12.7248 35.7854ZM15.6679 36.0548C15.4379 36.0548 15.2146 36.0482 14.9912 36.035C14.9262 36.0336 14.862 36.0192 14.8027 35.9924C14.7433 35.9657 14.69 35.9272 14.6458 35.8794C14.6017 35.8316 14.5676 35.7753 14.5457 35.714C14.5238 35.6527 14.5144 35.5876 14.5182 35.5226C14.5208 35.4579 14.5361 35.3943 14.5632 35.3355C14.5903 35.2767 14.6288 35.2238 14.6764 35.1799C14.724 35.136 14.7798 35.1018 14.8405 35.0795C14.9013 35.0571 14.9659 35.047 15.0307 35.0496C15.2409 35.0628 15.4511 35.0693 15.6679 35.0693C15.7985 35.0693 15.9239 35.1213 16.0163 35.2137C16.1087 35.3061 16.1606 35.4314 16.1606 35.5621C16.1606 35.6927 16.1087 35.818 16.0163 35.9104C15.9239 36.0028 15.7985 36.0548 15.6679 36.0548ZM18.6963 35.792C18.473 35.8314 18.2496 35.8642 18.0263 35.8971H17.9606C17.7175 35.8971 17.5007 35.7197 17.4679 35.4766C17.435 35.2073 17.619 34.9577 17.8883 34.9183C18.1051 34.892 18.3153 34.8591 18.519 34.8197C18.7817 34.7737 19.0445 34.9511 19.0905 35.2204C19.1431 35.4832 18.9591 35.7394 18.6963 35.792ZM20.989 35.2073C20.9365 35.2204 20.8839 35.227 20.8314 35.227C20.6277 35.227 20.4372 35.1022 20.365 34.892C20.2796 34.6358 20.4175 34.3599 20.6737 34.2679C20.8774 34.2022 21.0744 34.1299 21.2715 34.0511C21.3832 34.0051 21.4949 34.0117 21.6 34.0511V34.9839C21.4029 35.0628 21.1993 35.1285 20.989 35.2073ZM22.6708 27.508C22.027 28.8482 21.6788 30.3263 21.6263 31.811C19.9445 32.6584 17.8949 33.1774 15.7073 33.1774C13.5066 33.1774 11.4438 32.6584 9.75547 31.7978C9.63826 30.4954 9.02713 29.2873 8.04744 28.4212L4.83503 25.6161C3.93503 24.8277 3.34379 23.711 3.17956 22.4694C3.14671 22.2263 3.09416 21.9898 3.05474 21.7467L5.15036 17.2139L5.89927 19.8153C6.03065 20.2621 6.43138 20.5642 6.89781 20.5642C7.36423 20.5642 7.77153 20.2621 7.89635 19.8088C8.20511 18.7248 8.36277 17.608 8.36277 16.4847V8.09563H11.4372V15.7555C11.4372 16.0248 11.6606 16.2482 11.9299 16.2482C11.9956 16.2482 12.0613 16.235 12.1204 16.2088C12.2978 16.1365 12.4226 15.9591 12.4226 15.7555V4.54162H15.5036V15.7555C15.5036 16.0248 15.727 16.2482 15.9963 16.2482C16.2657 16.2482 16.489 16.0248 16.489 15.7555V7.19564H19.5701V15.7555C19.5701 16.0248 19.7934 16.2482 20.0628 16.2482C20.3321 16.2482 20.5555 16.0248 20.5555 15.7555V10.1518H23.6365V23.2577C23.6365 24.7161 23.3015 26.1876 22.6708 27.508Z" fill="#B1B1B1"/>
<path d="M22.0916 12.149C22.3637 12.149 22.5843 11.9284 22.5843 11.6563C22.5843 11.3842 22.3637 11.1636 22.0916 11.1636C21.8195 11.1636 21.5989 11.3842 21.5989 11.6563C21.5989 11.9284 21.8195 12.149 22.0916 12.149Z" fill="#B1B1B1"/>
<path d="M22.0916 14.6189C22.3637 14.6189 22.5843 14.3984 22.5843 14.1262C22.5843 13.8541 22.3637 13.6335 22.0916 13.6335C21.8195 13.6335 21.5989 13.8541 21.5989 14.1262C21.5989 14.3984 21.8195 14.6189 22.0916 14.6189Z" fill="#B1B1B1"/>
<path d="M22.0916 17.0892C22.3637 17.0892 22.5843 16.8686 22.5843 16.5965C22.5843 16.3243 22.3637 16.1038 22.0916 16.1038C21.8195 16.1038 21.5989 16.3243 21.5989 16.5965C21.5989 16.8686 21.8195 17.0892 22.0916 17.0892Z" fill="#B1B1B1"/>
<path d="M22.0916 19.5591C22.3637 19.5591 22.5843 19.3385 22.5843 19.0664C22.5843 18.7943 22.3637 18.5737 22.0916 18.5737C21.8195 18.5737 21.5989 18.7943 21.5989 19.0664C21.5989 19.3385 21.8195 19.5591 22.0916 19.5591Z" fill="#B1B1B1"/>
<path d="M18.0259 13.9095C18.298 13.9095 18.5186 13.6889 18.5186 13.4168C18.5186 13.1447 18.298 12.9241 18.0259 12.9241C17.7538 12.9241 17.5332 13.1447 17.5332 13.4168C17.5332 13.6889 17.7538 13.9095 18.0259 13.9095Z" fill="#B1B1B1"/>
<path d="M18.0259 11.5445C18.298 11.5445 18.5186 11.3239 18.5186 11.0518C18.5186 10.7797 18.298 10.5591 18.0259 10.5591C17.7538 10.5591 17.5332 10.7797 17.5332 11.0518C17.5332 11.3239 17.7538 11.5445 18.0259 11.5445Z" fill="#B1B1B1"/>
<path d="M18.0259 9.18608C18.298 9.18608 18.5186 8.9655 18.5186 8.69338C18.5186 8.42127 18.298 8.20068 18.0259 8.20068C17.7538 8.20068 17.5332 8.42127 17.5332 8.69338C17.5332 8.9655 17.7538 9.18608 18.0259 9.18608Z" fill="#B1B1B1"/>
<path d="M18.0259 16.2679C18.298 16.2679 18.5186 16.0473 18.5186 15.7752C18.5186 15.5031 18.298 15.2825 18.0259 15.2825C17.7538 15.2825 17.5332 15.5031 17.5332 15.7752C17.5332 16.0473 17.7538 16.2679 18.0259 16.2679Z" fill="#B1B1B1"/>
<path d="M13.96 13.2657C14.2321 13.2657 14.4527 13.0451 14.4527 12.773C14.4527 12.5009 14.2321 12.2803 13.96 12.2803C13.6878 12.2803 13.4673 12.5009 13.4673 12.773C13.4673 13.0451 13.6878 13.2657 13.96 13.2657Z" fill="#B1B1B1"/>
<path d="M13.96 15.5914C14.2321 15.5914 14.4527 15.3708 14.4527 15.0987C14.4527 14.8265 14.2321 14.606 13.96 14.606C13.6878 14.606 13.4673 14.8265 13.4673 15.0987C13.4673 15.3708 13.6878 15.5914 13.96 15.5914Z" fill="#B1B1B1"/>
<path d="M13.96 10.9468C14.2321 10.9468 14.4527 10.7262 14.4527 10.4541C14.4527 10.182 14.2321 9.96143 13.96 9.96143C13.6878 9.96143 13.4673 10.182 13.4673 10.4541C13.4673 10.7262 13.6878 10.9468 13.96 10.9468Z" fill="#B1B1B1"/>
<path d="M13.96 8.62114C14.2321 8.62114 14.4527 8.40055 14.4527 8.12844C14.4527 7.85633 14.2321 7.63574 13.96 7.63574C13.6878 7.63574 13.4673 7.85633 13.4673 8.12844C13.4673 8.40055 13.6878 8.62114 13.96 8.62114Z" fill="#B1B1B1"/>
<path d="M13.96 6.2957C14.2321 6.2957 14.4527 6.07511 14.4527 5.803C14.4527 5.53089 14.2321 5.3103 13.96 5.3103C13.6878 5.3103 13.4673 5.53089 13.4673 5.803C13.4673 6.07511 13.6878 6.2957 13.96 6.2957Z" fill="#B1B1B1"/>
<path d="M9.89282 12.3262C10.1649 12.3262 10.3855 12.1056 10.3855 11.8335C10.3855 11.5614 10.1649 11.3408 9.89282 11.3408C9.62071 11.3408 9.40012 11.5614 9.40012 11.8335C9.40012 12.1056 9.62071 12.3262 9.89282 12.3262Z" fill="#B1B1B1"/>
<path d="M9.89282 14.816C10.1649 14.816 10.3855 14.5954 10.3855 14.3233C10.3855 14.0512 10.1649 13.8306 9.89282 13.8306C9.62071 13.8306 9.40012 14.0512 9.40012 14.3233C9.40012 14.5954 9.62071 14.816 9.89282 14.816Z" fill="#B1B1B1"/>
<path d="M9.89282 17.306C10.1649 17.306 10.3855 17.0854 10.3855 16.8133C10.3855 16.5411 10.1649 16.3206 9.89282 16.3206C9.62071 16.3206 9.40012 16.5411 9.40012 16.8133C9.40012 17.0854 9.62071 17.306 9.89282 17.306Z" fill="#B1B1B1"/>
<path d="M9.89282 9.83648C10.1649 9.83648 10.3855 9.61589 10.3855 9.34377C10.3855 9.07166 10.1649 8.85107 9.89282 8.85107C9.62071 8.85107 9.40012 9.07166 9.40012 9.34377C9.40012 9.61589 9.62071 9.83648 9.89282 9.83648Z" fill="#B1B1B1"/>
<path d="M5.30797 22.6926C5.19787 22.7618 5.11911 22.8712 5.08843 22.9975C5.05776 23.1239 5.0776 23.2572 5.14373 23.3692C5.24228 23.5203 5.39994 23.6057 5.57074 23.6057C5.65614 23.6057 5.74154 23.5794 5.82695 23.5334C6.05687 23.3889 6.12914 23.0867 5.98461 22.8568C5.95143 22.8011 5.90747 22.7526 5.8553 22.7141C5.80313 22.6755 5.7438 22.6478 5.68079 22.6325C5.61778 22.6172 5.55235 22.6147 5.48833 22.625C5.42431 22.6353 5.363 22.6583 5.30797 22.6926ZM5.16344 21.0108C5.17001 21.0108 5.17001 21.0108 5.16344 21.0108C5.14349 20.9202 5.0983 20.837 5.03309 20.7709C4.96789 20.7049 4.88533 20.6586 4.79494 20.6375C4.70456 20.6163 4.61003 20.6212 4.52229 20.6515C4.43455 20.6818 4.35717 20.7363 4.29909 20.8087C4.24101 20.8811 4.20459 20.9685 4.19404 21.0607C4.1835 21.1529 4.19925 21.2462 4.23949 21.3299C4.27973 21.4135 4.34281 21.4841 4.42144 21.5334C4.50007 21.5827 4.59106 21.6088 4.68388 21.6086C4.7233 21.6086 4.75614 21.6086 4.79556 21.6021C5.05833 21.5429 5.22257 21.2802 5.16344 21.0108ZM15.7335 39.8385C15.5167 39.8385 15.3065 39.832 15.0897 39.8254C14.8401 39.8188 14.5904 40.0291 14.5773 40.2984C14.5642 40.5677 14.781 40.7977 15.0503 40.8108C15.2737 40.8174 15.497 40.8239 15.7204 40.8239H15.7269C15.9963 40.8239 16.2196 40.6072 16.2196 40.3378C16.2217 40.2728 16.2106 40.2081 16.187 40.1474C16.1635 40.0868 16.128 40.0315 16.0826 39.9849C16.0372 39.9383 15.9829 39.9014 15.923 39.8762C15.863 39.8511 15.7986 39.8382 15.7335 39.8385ZM18.6043 39.6415C18.3941 39.6743 18.1839 39.7006 17.9671 39.7203C17.6977 39.7466 17.5007 39.9896 17.5269 40.2655C17.5532 40.5152 17.77 40.7057 18.0196 40.7057H18.0722C18.2956 40.6794 18.5189 40.6531 18.7423 40.6203C19.0116 40.5809 19.1956 40.3312 19.1627 40.0619C19.1299 39.7926 18.8737 39.602 18.6043 39.6415ZM12.8627 39.6152C12.6525 39.5823 12.4423 39.5495 12.2321 39.5101C11.9693 39.4575 11.7065 39.6349 11.6539 39.9042C11.6014 40.1736 11.7788 40.4298 12.0481 40.4823C12.2649 40.5218 12.4883 40.5612 12.7116 40.594C12.7379 40.6006 12.7642 40.6006 12.7839 40.6006C13.0204 40.6006 13.2306 40.4232 13.27 40.1801C13.316 39.9042 13.1321 39.6546 12.8627 39.6152ZM19.3598 23.2115C19.1167 23.2115 18.6175 23.2707 18.0459 23.3758C18.5255 23.0276 18.9196 22.7188 19.097 22.548C19.6357 22.0028 19.6357 21.1291 19.097 20.5838C18.5518 20.0386 17.6715 20.0386 17.1328 20.5838C16.9554 20.7546 16.6466 21.1553 16.305 21.6349C16.4036 21.0502 16.4693 20.551 16.4693 20.3145C16.4693 19.946 16.3229 19.5926 16.0623 19.332C15.8018 19.0714 15.4484 18.925 15.0799 18.925C14.7114 18.925 14.358 19.0714 14.0974 19.332C13.8368 19.5926 13.6904 19.946 13.6904 20.3145C13.6904 20.551 13.7561 21.0502 13.8547 21.6349C13.5131 21.1553 13.2043 20.7546 13.0269 20.5838C12.4883 20.0386 11.608 20.0386 11.0627 20.5838C10.524 21.1291 10.524 22.0028 11.0627 22.548C11.2401 22.7188 11.6342 23.0276 12.1138 23.3758C11.5423 23.2707 11.0364 23.2115 10.7999 23.2115C10.0248 23.2115 9.40067 23.8291 9.40067 24.5977C9.40067 25.3663 10.0248 25.9969 10.7999 25.9969C11.0364 25.9969 11.5488 25.9312 12.1269 25.8196C11.6342 26.1677 11.2401 26.4765 11.0627 26.6473C10.524 27.1926 10.524 28.0729 11.0627 28.6115C11.608 29.1568 12.4883 29.1568 13.0269 28.6115C13.2043 28.4407 13.5131 28.0466 13.8547 27.5604C13.7561 28.1385 13.6904 28.6444 13.6904 28.8875C13.6904 29.6561 14.3145 30.2736 15.0766 30.2736C15.8452 30.2736 16.4693 29.6561 16.4693 28.8875C16.4693 28.6444 16.4036 28.1385 16.305 27.5604C16.6466 28.0466 16.9554 28.4407 17.1328 28.6115C17.6715 29.1568 18.5518 29.1568 19.097 28.6115C19.6357 28.0729 19.6357 27.1926 19.097 26.6473C18.9196 26.4765 18.5255 26.1677 18.0328 25.8196C18.6175 25.9247 19.1299 25.9838 19.3729 25.9838C20.135 25.9838 20.7591 25.3663 20.7591 24.5977C20.7591 23.8291 20.135 23.2115 19.3598 23.2115ZM15.0831 25.767C14.9282 25.7688 14.7745 25.7396 14.6311 25.6811C14.4876 25.6226 14.3573 25.5361 14.2477 25.4265C14.1382 25.317 14.0516 25.1866 13.9932 25.0432C13.9347 24.8997 13.9055 24.746 13.9072 24.5911C13.9072 23.9473 14.4196 23.4283 15.0831 23.4283C15.7269 23.4283 16.2591 23.9473 16.2591 24.5911C16.2591 25.248 15.7269 25.767 15.0831 25.767Z" fill="#B1B1B1"/>
</svg>
