<svg width="85" height="112" viewBox="0 0 85 112" fill="none" xmlns="http://www.w3.org/2000/svg">
<path d="M8.93944 97.464C9.67998 97.602 10.2887 97.9723 10.7657 98.5748C11.2426 99.1772 11.4811 99.8676 11.4811 100.646C11.4811 101.349 11.3054 101.97 10.954 102.51C10.6151 103.037 10.1193 103.451 9.4666 103.752C8.81393 104.053 8.04201 104.204 7.15086 104.204H1.48388V91.0627H6.90611C7.79726 91.0627 8.5629 91.2071 9.20302 91.4958C9.8557 91.7844 10.3452 92.1861 10.6715 92.7007C11.0104 93.2153 11.1799 93.7989 11.1799 94.4516C11.1799 95.2173 10.9728 95.8574 10.5586 96.372C10.1569 96.8866 9.61722 97.2506 8.93944 97.464ZM4.11968 96.485H6.52956C7.15714 96.485 7.64037 96.3469 7.97926 96.0708C8.31815 95.7821 8.48759 95.3742 8.48759 94.847C8.48759 94.3198 8.31815 93.9119 7.97926 93.6232C7.64037 93.3345 7.15714 93.1902 6.52956 93.1902H4.11968V96.485ZM6.77432 102.058C7.41444 102.058 7.91022 101.907 8.26166 101.606C8.62566 101.305 8.80765 100.878 8.80765 100.326C8.80765 99.7609 8.61938 99.3216 8.24284 99.0078C7.86629 98.6815 7.35796 98.5183 6.71784 98.5183H4.11968V102.058H6.77432ZM23.4284 93.7738V104.204H20.7738V102.886C20.4349 103.338 19.9893 103.696 19.4371 103.959C18.8974 104.21 18.3074 104.336 17.6673 104.336C16.8515 104.336 16.1298 104.166 15.5022 103.828C14.8746 103.476 14.3788 102.968 14.0148 102.303C13.6634 101.625 13.4877 100.821 13.4877 99.8927V93.7738H16.1235V99.5161C16.1235 100.345 16.3306 100.985 16.7448 101.437C17.159 101.876 17.7238 102.095 18.4392 102.095C19.1672 102.095 19.7383 101.876 20.1525 101.437C20.5667 100.985 20.7738 100.345 20.7738 99.5161V93.7738H23.4284ZM30.0204 104.374C29.1669 104.374 28.4013 104.223 27.7235 103.922C27.0458 103.608 26.506 103.187 26.1044 102.66C25.7153 102.133 25.5019 101.549 25.4643 100.909H28.1189C28.1691 101.311 28.3637 101.644 28.7025 101.907C29.054 102.171 29.487 102.303 30.0016 102.303C30.5037 102.303 30.8928 102.202 31.1689 102.001C31.4576 101.8 31.6019 101.543 31.6019 101.229C31.6019 100.891 31.4262 100.639 31.0748 100.476C30.7359 100.301 30.1899 100.112 29.4368 99.9115C28.6586 99.7232 28.0185 99.5287 27.5164 99.3279C27.0269 99.127 26.6002 98.8195 26.2362 98.4053C25.8847 97.9911 25.709 97.4326 25.709 96.7297C25.709 96.1523 25.8722 95.6252 26.1985 95.1482C26.5374 94.6713 27.0144 94.2947 27.6294 94.0186C28.257 93.7425 28.9912 93.6044 29.8322 93.6044C31.0748 93.6044 32.0663 93.9182 32.8069 94.5458C33.5474 95.1608 33.9553 95.9954 34.0306 97.0498H31.5078C31.4701 96.6356 31.2944 96.3092 30.9806 96.0708C30.6794 95.8197 30.2715 95.6942 29.7569 95.6942C29.2799 95.6942 28.9096 95.7821 28.6461 95.9578C28.395 96.1335 28.2695 96.3783 28.2695 96.6921C28.2695 97.0435 28.4452 97.3134 28.7967 97.5016C29.1481 97.6773 29.6941 97.8593 30.4346 98.0476C31.1877 98.2359 31.809 98.4304 32.2985 98.6313C32.788 98.8321 33.2085 99.1459 33.56 99.5726C33.9239 99.9868 34.1122 100.539 34.1248 101.229C34.1248 101.832 33.9553 102.372 33.6164 102.849C33.2901 103.325 32.8131 103.702 32.1856 103.978C31.5706 104.242 30.8488 104.374 30.0204 104.374ZM37.6252 92.5312C37.1608 92.5312 36.7717 92.3869 36.4579 92.0982C36.1566 91.797 36.006 91.4267 36.006 90.9874C36.006 90.5481 36.1566 90.1841 36.4579 89.8954C36.7717 89.5942 37.1608 89.4436 37.6252 89.4436C38.0896 89.4436 38.4724 89.5942 38.7736 89.8954C39.0874 90.1841 39.2443 90.5481 39.2443 90.9874C39.2443 91.4267 39.0874 91.797 38.7736 92.0982C38.4724 92.3869 38.0896 92.5312 37.6252 92.5312ZM38.9242 93.7738V104.204H36.2884V93.7738H38.9242ZM47.3084 93.6232C48.551 93.6232 49.5551 94.0186 50.3207 94.8093C51.0863 95.5875 51.4692 96.6795 51.4692 98.0853V104.204H48.8334V98.443C48.8334 97.6146 48.6263 96.9807 48.2121 96.5414C47.7979 96.0896 47.2331 95.8637 46.5176 95.8637C45.7896 95.8637 45.2123 96.0896 44.7855 96.5414C44.3713 96.9807 44.1642 97.6146 44.1642 98.443V104.204H41.5284V93.7738H44.1642V95.0729C44.5157 94.6211 44.9612 94.2696 45.501 94.0186C46.0532 93.755 46.6557 93.6232 47.3084 93.6232ZM63.6717 98.763C63.6717 99.1396 63.6466 99.4785 63.5964 99.7797H55.9714C56.0341 100.533 56.2977 101.123 56.7621 101.549C57.2265 101.976 57.7976 102.19 58.4754 102.19C59.4544 102.19 60.151 101.769 60.5652 100.928H63.4081C63.1069 101.932 62.5295 102.761 61.676 103.413C60.8225 104.053 59.7745 104.374 58.5319 104.374C57.5277 104.374 56.624 104.154 55.8207 103.715C55.03 103.263 54.4087 102.629 53.9569 101.813C53.5176 100.997 53.2979 100.056 53.2979 98.989C53.2979 97.9095 53.5176 96.9619 53.9569 96.1461C54.3962 95.3302 55.0112 94.7026 55.8019 94.2633C56.5927 93.824 57.5026 93.6044 58.5319 93.6044C59.5234 93.6044 60.4083 93.8178 61.1865 94.2445C61.9772 94.6713 62.586 95.28 63.0127 96.0708C63.452 96.8489 63.6717 97.7464 63.6717 98.763ZM60.9417 98.01C60.9292 97.3322 60.6844 96.7925 60.2075 96.3908C59.7305 95.9766 59.1469 95.7695 58.4566 95.7695C57.8039 95.7695 57.2516 95.9703 56.7998 96.372C56.3605 96.7611 56.0906 97.3071 55.9902 98.01H60.9417ZM69.5869 104.374C68.7334 104.374 67.9678 104.223 67.29 103.922C66.6123 103.608 66.0725 103.187 65.6709 102.66C65.2818 102.133 65.0684 101.549 65.0308 100.909H67.6854C67.7356 101.311 67.9302 101.644 68.269 101.907C68.6205 102.171 69.0535 102.303 69.5681 102.303C70.0702 102.303 70.4593 102.202 70.7354 102.001C71.0241 101.8 71.1684 101.543 71.1684 101.229C71.1684 100.891 70.9927 100.639 70.6413 100.476C70.3024 100.301 69.7564 100.112 69.0033 99.9115C68.2251 99.7232 67.585 99.5287 67.0829 99.3279C66.5934 99.127 66.1667 98.8195 65.8027 98.4053C65.4512 97.9911 65.2755 97.4326 65.2755 96.7297C65.2755 96.1523 65.4387 95.6252 65.765 95.1482C66.1039 94.6713 66.5809 94.2947 67.1959 94.0186C67.8235 93.7425 68.5577 93.6044 69.3987 93.6044C70.6413 93.6044 71.6328 93.9182 72.3734 94.5458C73.1139 95.1608 73.5218 95.9954 73.5971 97.0498H71.0743C71.0366 96.6356 70.8609 96.3092 70.5471 96.0708C70.2459 95.8197 69.838 95.6942 69.3234 95.6942C68.8464 95.6942 68.4761 95.7821 68.2126 95.9578C67.9615 96.1335 67.836 96.3783 67.836 96.6921C67.836 97.0435 68.0117 97.3134 68.3632 97.5016C68.7146 97.6773 69.2606 97.8593 70.0011 98.0476C70.7542 98.2359 71.3755 98.4304 71.865 98.6313C72.3545 98.8321 72.775 99.1459 73.1265 99.5726C73.4905 99.9868 73.6787 100.539 73.6913 101.229C73.6913 101.832 73.5218 102.372 73.1829 102.849C72.8566 103.325 72.3796 103.702 71.7521 103.978C71.1371 104.242 70.4153 104.374 69.5869 104.374ZM79.8463 104.374C78.9928 104.374 78.2271 104.223 77.5494 103.922C76.8716 103.608 76.3319 103.187 75.9302 102.66C75.5411 102.133 75.3278 101.549 75.2901 100.909H77.9447C77.9949 101.311 78.1895 101.644 78.5284 101.907C78.8798 102.171 79.3128 102.303 79.8275 102.303C80.3295 102.303 80.7186 102.202 80.9947 102.001C81.2834 101.8 81.4278 101.543 81.4278 101.229C81.4278 100.891 81.252 100.639 80.9006 100.476C80.5617 100.301 80.0157 100.112 79.2626 99.9115C78.4845 99.7232 77.8443 99.5287 77.3423 99.3279C76.8528 99.127 76.426 98.8195 76.062 98.4053C75.7106 97.9911 75.5349 97.4326 75.5349 96.7297C75.5349 96.1523 75.698 95.6252 76.0244 95.1482C76.3633 94.6713 76.8402 94.2947 77.4552 94.0186C78.0828 93.7425 78.8171 93.6044 79.658 93.6044C80.9006 93.6044 81.8922 93.9182 82.6327 94.5458C83.3732 95.1608 83.7812 95.9954 83.8565 97.0498H81.3336C81.296 96.6356 81.1203 96.3092 80.8065 96.0708C80.5052 95.8197 80.0973 95.6942 79.5827 95.6942C79.1058 95.6942 78.7355 95.7821 78.4719 95.9578C78.2209 96.1335 78.0954 96.3783 78.0954 96.6921C78.0954 97.0435 78.2711 97.3134 78.6225 97.5016C78.974 97.6773 79.5199 97.8593 80.2605 98.0476C81.0136 98.2359 81.6349 98.4304 82.1244 98.6313C82.6139 98.8321 83.0344 99.1459 83.3858 99.5726C83.7498 99.9868 83.9381 100.539 83.9506 101.229C83.9506 101.832 83.7812 102.372 83.4423 102.849C83.1159 103.325 82.639 103.702 82.0114 103.978C81.3964 104.242 80.6747 104.374 79.8463 104.374Z" fill="#A5A5A5"/>
<path d="M35.1113 39.5889H40.919V61.8673H35.1113V39.5889ZM46.6314 39.5889H52.439V61.8673H46.6314V39.5889Z" fill="#A5A5A5"/>
<path d="M66.048 60.7688V22.5393H17.6827V60.7688H27.4891V32.7779H56.2416V60.7688H66.048ZM3.21124 22.5393V60.7688H11.9703V22.5393H3.21124ZM80.5195 60.7688V22.5393H71.7604V60.7688H80.5195ZM13.6916 66.4813H3V72.1937H81.2517V66.4813H13.6916ZM57.4013 13.4813L41.8654 0C38.8629 2.60544 25.1744 14.4837 22.4755 16.8269H61.2552L57.4013 13.4813Z" fill="#A5A5A5"/>
</svg>
