<svg width="96" height="112" viewBox="0 0 96 112" fill="none" xmlns="http://www.w3.org/2000/svg">
<path d="M0.947487 97.6146C0.947487 96.3218 1.23617 95.1671 1.81354 94.1504C2.40346 93.1212 3.20047 92.3241 4.20459 91.7593C5.22126 91.182 6.35716 90.8933 7.61231 90.8933C9.08083 90.8933 10.3674 91.2698 11.4719 92.0229C12.5764 92.776 13.3483 93.8178 13.7876 95.1482H10.7565C10.4552 94.5207 10.0285 94.05 9.4762 93.7362C8.93649 93.4224 8.30892 93.2655 7.59348 93.2655C6.82784 93.2655 6.14379 93.4475 5.54132 93.8115C4.9514 94.1629 4.487 94.665 4.14811 95.3177C3.82177 95.9703 3.6586 96.736 3.6586 97.6146C3.6586 98.4806 3.82177 99.2463 4.14811 99.9115C4.487 100.564 4.9514 101.073 5.54132 101.437C6.14379 101.788 6.82784 101.964 7.59348 101.964C8.30892 101.964 8.93649 101.807 9.4762 101.493C10.0285 101.167 10.4552 100.69 10.7565 100.062H13.7876C13.3483 101.405 12.5764 102.453 11.4719 103.206C10.3799 103.947 9.09338 104.317 7.61231 104.317C6.35716 104.317 5.22126 104.035 4.20459 103.47C3.20047 102.892 2.40346 102.095 1.81354 101.079C1.23617 100.062 0.947487 98.9074 0.947487 97.6146ZM25.8856 93.7738V104.204H23.2309V102.886C22.892 103.338 22.4465 103.696 21.8942 103.959C21.3545 104.21 20.7646 104.336 20.1244 104.336C19.3086 104.336 18.5869 104.166 17.9593 103.828C17.3317 103.476 16.836 102.968 16.472 102.303C16.1205 101.625 15.9448 100.821 15.9448 99.8927V93.7738H18.5806V99.5161C18.5806 100.345 18.7877 100.985 19.2019 101.437C19.6161 101.876 20.1809 102.095 20.8964 102.095C21.6243 102.095 22.1954 101.876 22.6096 101.437C23.0238 100.985 23.2309 100.345 23.2309 99.5161V93.7738H25.8856ZM32.4776 104.374C31.6241 104.374 30.8584 104.223 30.1807 103.922C29.5029 103.608 28.9632 103.187 28.5615 102.66C28.1724 102.133 27.9591 101.549 27.9214 100.909H30.576C30.6262 101.311 30.8208 101.644 31.1597 101.907C31.5111 102.171 31.9441 102.303 32.4587 102.303C32.9608 102.303 33.3499 102.202 33.626 102.001C33.9147 101.8 34.0591 101.543 34.0591 101.229C34.0591 100.891 33.8833 100.639 33.5319 100.476C33.193 100.301 32.647 100.112 31.8939 99.9115C31.1157 99.7232 30.4756 99.5287 29.9736 99.3279C29.4841 99.127 29.0573 98.8195 28.6933 98.4053C28.3419 97.9911 28.1662 97.4326 28.1662 96.7297C28.1662 96.1523 28.3293 95.6252 28.6557 95.1482C28.9945 94.6713 29.4715 94.2947 30.0865 94.0186C30.7141 93.7425 31.4484 93.6044 32.2893 93.6044C33.5319 93.6044 34.5235 93.9182 35.264 94.5458C36.0045 95.1608 36.4125 95.9954 36.4878 97.0498H33.9649C33.9273 96.6356 33.7515 96.3092 33.4378 96.0708C33.1365 95.8197 32.7286 95.6942 32.214 95.6942C31.737 95.6942 31.3668 95.7821 31.1032 95.9578C30.8522 96.1335 30.7266 96.3783 30.7266 96.6921C30.7266 97.0435 30.9024 97.3134 31.2538 97.5016C31.6053 97.6773 32.1512 97.8593 32.8918 98.0476C33.6449 98.2359 34.2662 98.4304 34.7557 98.6313C35.2452 98.8321 35.6656 99.1459 36.0171 99.5726C36.3811 99.9868 36.5694 100.539 36.5819 101.229C36.5819 101.832 36.4125 102.372 36.0736 102.849C35.7472 103.325 35.2703 103.702 34.6427 103.978C34.0277 104.242 33.306 104.374 32.4776 104.374ZM41.8144 95.939V100.985C41.8144 101.336 41.896 101.593 42.0591 101.757C42.2349 101.907 42.5235 101.982 42.9252 101.982H44.149V104.204H42.4922C40.2706 104.204 39.1598 103.125 39.1598 100.966V95.939H37.9172V93.7738H39.1598V91.1945H41.8144V93.7738H44.149V95.939H41.8144ZM50.6763 104.374C49.6721 104.374 48.7684 104.154 47.9651 103.715C47.1618 103.263 46.528 102.629 46.0636 101.813C45.6117 100.997 45.3858 100.056 45.3858 98.989C45.3858 97.9221 45.618 96.9807 46.0824 96.1649C46.5594 95.349 47.2058 94.7215 48.0216 94.2822C48.8375 93.8303 49.7474 93.6044 50.7516 93.6044C51.7557 93.6044 52.6657 93.8303 53.4815 94.2822C54.2974 94.7215 54.9375 95.349 55.4019 96.1649C55.8788 96.9807 56.1173 97.9221 56.1173 98.989C56.1173 100.056 55.8726 100.997 55.3831 101.813C54.9061 102.629 54.2534 103.263 53.425 103.715C52.6092 104.154 51.6929 104.374 50.6763 104.374ZM50.6763 102.077C51.1532 102.077 51.5988 101.964 52.013 101.738C52.4397 101.499 52.7786 101.148 53.0297 100.683C53.2807 100.219 53.4062 99.6542 53.4062 98.989C53.4062 97.9974 53.1426 97.238 52.6155 96.7109C52.1008 96.1712 51.467 95.9013 50.7139 95.9013C49.9608 95.9013 49.327 96.1712 48.8124 96.7109C48.3103 97.238 48.0593 97.9974 48.0593 98.989C48.0593 99.9805 48.304 100.746 48.7935 101.286C49.2956 101.813 49.9232 102.077 50.6763 102.077ZM71.0039 93.6232C72.2841 93.6232 73.3133 94.0186 74.0915 94.8093C74.8823 95.5875 75.2776 96.6795 75.2776 98.0853V104.204H72.6418V98.443C72.6418 97.6271 72.4347 97.0058 72.0205 96.5791C71.6063 96.1398 71.0415 95.9201 70.3261 95.9201C69.6107 95.9201 69.0396 96.1398 68.6128 96.5791C68.1986 97.0058 67.9915 97.6271 67.9915 98.443V104.204H65.3557V98.443C65.3557 97.6271 65.1486 97.0058 64.7344 96.5791C64.3202 96.1398 63.7554 95.9201 63.04 95.9201C62.312 95.9201 61.7346 96.1398 61.3079 96.5791C60.8937 97.0058 60.6866 97.6271 60.6866 98.443V104.204H58.0508V93.7738H60.6866V95.0353C61.0255 94.596 61.4585 94.2508 61.9857 93.9998C62.5254 93.7487 63.1153 93.6232 63.7554 93.6232C64.5713 93.6232 65.2992 93.7989 65.9394 94.1504C66.5795 94.4893 67.0753 94.9788 67.4267 95.6189C67.7656 95.0164 68.2551 94.5332 68.8952 94.1692C69.5479 93.8052 70.2508 93.6232 71.0039 93.6232ZM87.4749 98.763C87.4749 99.1396 87.4498 99.4785 87.3996 99.7797H79.7745C79.8373 100.533 80.1009 101.123 80.5653 101.549C81.0297 101.976 81.6008 102.19 82.2786 102.19C83.2576 102.19 83.9542 101.769 84.3684 100.928H87.2113C86.91 101.932 86.3327 102.761 85.4792 103.413C84.6257 104.053 83.5776 104.374 82.335 104.374C81.3309 104.374 80.4272 104.154 79.6239 103.715C78.8332 103.263 78.2119 102.629 77.76 101.813C77.3207 100.997 77.1011 100.056 77.1011 98.989C77.1011 97.9095 77.3207 96.9619 77.76 96.1461C78.1993 95.3302 78.8144 94.7026 79.6051 94.2633C80.3958 93.824 81.3058 93.6044 82.335 93.6044C83.3266 93.6044 84.2115 93.8178 84.9897 94.2445C85.7804 94.6713 86.3892 95.28 86.8159 96.0708C87.2552 96.8489 87.4749 97.7464 87.4749 98.763ZM84.7449 98.01C84.7324 97.3322 84.4876 96.7925 84.0107 96.3908C83.5337 95.9766 82.9501 95.7695 82.2597 95.7695C81.6071 95.7695 81.0548 95.9703 80.6029 96.372C80.1636 96.7611 79.8938 97.3071 79.7934 98.01H84.7449ZM92.0346 95.393C92.3735 94.8407 92.8128 94.4077 93.3525 94.0939C93.9047 93.7801 94.5323 93.6232 95.2352 93.6232V96.3908H94.5386C93.7102 96.3908 93.0826 96.5854 92.6559 96.9745C92.2417 97.3636 92.0346 98.0413 92.0346 99.0078V104.204H89.3988V93.7738H92.0346V95.393Z" fill="#A5A5A5"/>
<path fill-rule="evenodd" clip-rule="evenodd" d="M29.5385 5.53846C26.3559 5.53846 23.3036 6.80274 21.0532 9.05318C18.8027 11.3036 17.5385 14.3559 17.5385 17.5385V54.4615C17.5385 57.6441 18.8027 60.6964 21.0532 62.9468C23.3036 65.1973 26.3559 66.4615 29.5385 66.4615H66.4615C69.6441 66.4615 72.6964 65.1973 74.9468 62.9468C77.1973 60.6964 78.4615 57.6441 78.4615 54.4615V17.5385C78.4615 14.3559 77.1973 11.3036 74.9468 9.05318C72.6964 6.80274 69.6441 5.53846 66.4615 5.53846H29.5385ZM12 17.5385C12 12.887 13.8478 8.426 17.1369 5.1369C20.426 1.8478 24.887 0 29.5385 0H66.4615C71.113 0 75.574 1.8478 78.8631 5.1369C82.1522 8.426 84 12.887 84 17.5385V54.4615C84 59.113 82.1522 63.574 78.8631 66.8631C75.574 70.1522 71.113 72 66.4615 72H29.5385C24.887 72 20.426 70.1522 17.1369 66.8631C13.8478 63.574 12 59.113 12 54.4615V17.5385Z" fill="#A5A5A5"/>
<path fill-rule="evenodd" clip-rule="evenodd" d="M48.0003 20.3075C45.983 20.3075 44.0484 21.1089 42.6219 22.5353C41.1955 23.9617 40.3941 25.8964 40.3941 27.9137C40.3941 29.9309 41.1955 31.8656 42.6219 33.292C44.0484 34.7185 45.983 35.5198 48.0003 35.5198C50.0176 35.5198 51.9522 34.7185 53.3787 33.292C54.8051 31.8656 55.6065 29.9309 55.6065 27.9137C55.6065 25.8964 54.8051 23.9617 53.3787 22.5353C51.9522 21.1089 50.0176 20.3075 48.0003 20.3075ZM34.8557 27.9137C34.8557 24.4275 36.2406 21.0841 38.7057 18.619C41.1707 16.1539 44.5141 14.769 48.0003 14.769C51.4865 14.769 54.8299 16.1539 57.295 18.619C59.76 21.0841 61.1449 24.4275 61.1449 27.9137C61.1449 31.3998 59.76 34.7432 57.295 37.2083C54.8299 39.6734 51.4865 41.0583 48.0003 41.0583C44.5141 41.0583 41.1707 39.6734 38.7057 37.2083C36.2406 34.7432 34.8557 31.3998 34.8557 27.9137ZM48.148 51.681C43.0381 51.6811 38.052 53.2541 33.8672 56.1865C29.6824 59.1188 26.5017 63.2683 24.7572 68.0712C24.5065 68.7616 23.9919 69.3241 23.3264 69.635C22.661 69.9459 21.8993 69.9797 21.2089 69.729C20.5185 69.4784 19.956 68.9637 19.6451 68.2982C19.3342 67.6328 19.3004 66.8711 19.5511 66.1807C21.6837 60.3087 25.5723 55.2356 30.6886 51.6505C35.8049 48.0655 41.9007 46.1423 48.148 46.1423C54.3953 46.1423 60.4911 48.0655 65.6074 51.6505C70.7236 55.2356 74.6123 60.3087 76.7449 66.1807C76.9956 66.8711 76.9618 67.6328 76.6509 68.2982C76.34 68.9637 75.7775 69.4784 75.0871 69.729C74.3967 69.9797 73.635 69.9459 72.9696 69.635C72.3041 69.3241 71.7895 68.7616 71.5388 68.0712C69.7943 63.2683 66.6136 59.1188 62.4288 56.1865C58.2439 53.2541 53.2579 51.6811 48.148 51.681Z" fill="#A5A5A5"/>
</svg>
