<svg width="40" height="40" viewBox="0 0 39 35" fill="none" xmlns="http://www.w3.org/2000/svg">
<path d="M19.7667 24.51C22.7102 24.51 25.0963 22.1843 25.0963 19.3154C25.0963 16.4465 22.7102 14.1208 19.7667 14.1208C16.8232 14.1208 14.437 16.4465 14.437 19.3154C14.437 22.1843 16.8232 24.51 19.7667 24.51Z" stroke="#B1B1B1" stroke-width="2.90708"/>
<path d="M15.818 33.1675H23.713C29.2576 33.1675 32.0308 33.1675 34.0223 31.8949C34.8816 31.3459 35.6217 30.6375 36.2003 29.8101C37.531 27.9054 37.531 25.251 37.531 19.9456C37.531 14.6385 37.531 11.9858 36.2003 10.0811C35.6217 9.25363 34.8816 8.54525 34.0223 7.99635C32.7432 7.17734 31.1407 6.88471 28.6873 6.78082C27.5166 6.78082 26.5093 5.93237 26.2801 4.83285C26.105 4.02747 25.6499 3.30571 24.9918 2.78957C24.3338 2.27343 23.513 1.99455 22.6684 2.00008H16.8626C15.1074 2.00008 13.5955 3.18618 13.2509 4.83285C13.0217 5.93237 12.0144 6.78082 10.8437 6.78082C8.39202 6.88471 6.78958 7.17907 5.50868 7.99635C4.64993 8.54535 3.91045 9.25374 3.33241 10.0811C2 11.9858 2 14.6385 2 19.9456C2 25.251 2 27.9037 3.33064 29.8101C3.90624 30.6343 4.64528 31.3425 5.50868 31.8949C7.50019 33.1675 10.2734 33.1675 15.818 33.1675Z" stroke="#B1B1B1" stroke-width="2.90708"/>
<path d="M32.2013 14.1208H30.4247" stroke="#B1B1B1" stroke-width="2.90708" stroke-linecap="round"/>
</svg>
