<svg width="40" height="40" viewBox="0 0 44 39" fill="none" xmlns="http://www.w3.org/2000/svg">
<path d="M38.6381 1.73574C36.8331 1.73574 35.3087 3.62925 34.3531 5.78785C27.3918 -2.48906 13.664 -1.75589 7.59679 7.13603V6.89972C7.59679 6.89366 7.60058 6.88836 7.60058 6.88154V2.45528C7.58997 1.46914 6.09895 1.45247 6.08378 2.45528V6.12111H4.56471V2.45528C4.55637 1.46989 3.06156 1.45247 3.04791 2.45528V6.12111H1.52959V2.45528C1.52959 2.2544 1.44969 2.06175 1.30746 1.91971C1.16523 1.77767 0.972331 1.69787 0.771191 1.69787C0.570051 1.69787 0.377149 1.77767 0.234921 1.91971C0.0926934 2.06175 0.0127908 2.2544 0.0127908 2.45528V10.302C-0.163916 12.2826 1.54931 13.7201 1.51442 15.6568V38.2426C1.51442 38.6592 1.8557 39 2.27282 39H5.33676C5.75388 39 6.09516 38.6592 6.09516 38.2426V24.5821C11.9652 36.9096 29.5813 37.6995 36.3477 25.7469V38.1972C36.3477 38.6137 36.689 38.9546 37.1061 38.9546H40.1625C40.5872 38.9546 40.9209 38.6137 40.9209 38.1972V15.5811C40.9209 15.2781 41.1029 14.9903 41.4063 14.8085C43.0292 13.8239 44 12.1122 44 10.2187C44 7.31781 41.7324 1.73574 38.6381 1.73574ZM21.5165 32.8241C13.8953 32.8241 7.27751 27.1421 6.09516 19.5976V15.6568C6.09516 14.854 6.3151 14.0587 6.7398 13.377C7.33898 12.3793 7.63659 11.2299 7.59679 10.0672C10.2664 4.76536 15.5827 1.47822 21.5134 1.47822C26.3369 1.47822 30.7659 3.63683 33.7464 7.42384C33.4355 8.44634 33.2686 9.43096 33.2686 10.2187C33.2686 12.1122 34.2394 13.8239 35.8624 14.8085C36.1657 14.9903 36.3477 15.2781 36.3477 15.5811V22.0455C34.2409 28.4963 28.2981 32.8241 21.5165 32.8241Z" fill="#B1B1B1"/>
</svg>
